<svg width="290" height="289" viewBox="0 0 290 289" fill="none" xmlns="http://www.w3.org/2000/svg">
<path d="M159.719 102.784C159.814 102.889 159.83 102.975 159.837 103.017C159.826 103.004 159.811 102.985 159.805 102.977C159.8 102.912 159.772 102.847 159.719 102.784ZM217.996 81.6893V122.468H150.77V81.6893H217.996ZM159.856 103.04C159.882 103.018 159.956 102.908 160.199 102.654C160.677 102.153 161.177 101.671 161.672 101.187C163.104 99.7882 164.553 98.406 165.986 97.0093C167.216 95.8097 168.442 94.6037 169.606 93.34C169.95 92.9667 171.019 92.0345 170.792 91.4107C170.55 90.7475 169.144 91.1383 169.381 91.7879C169.44 91.951 167.777 93.5774 167.482 93.8833C166.185 95.2295 164.836 96.5277 163.493 97.8288C162.325 98.9605 161.15 100.085 159.989 101.225C159.538 101.667 158.555 102.35 158.374 102.999C158.361 103.049 158.35 103.097 158.346 103.144C158.334 103.195 158.331 103.248 158.346 103.302C158.507 103.878 159.309 104.437 159.708 104.834C160.937 106.056 162.195 107.25 163.44 108.455C164.784 109.755 166.124 111.061 167.429 112.401C167.773 112.755 169.425 114.512 169.415 114.538C169.144 115.283 170.556 115.226 170.757 114.672C170.98 114.062 170.211 113.407 169.856 113.003C168.658 111.641 167.335 110.383 166.039 109.115C164.697 107.802 163.339 106.503 161.991 105.195C161.461 104.68 160.933 104.163 160.415 103.638C160.269 103.49 160.127 103.339 159.986 103.187C159.924 103.123 159.885 103.076 159.856 103.04ZM189.256 89.8761C188.398 90.1256 188.637 91.0383 189.501 90.7863C188.384 91.1121 188.888 90.0635 188.567 90.8456C188.412 91.2209 188.235 91.5874 188.061 91.9539C187.554 93.0225 187.019 94.0779 186.486 95.1339C184.935 98.206 183.357 101.264 181.809 104.337C181.27 105.408 175.742 114.967 177.396 115.704C177.953 115.953 179.033 115.156 178.221 114.794C178.597 114.962 178.756 113.8 178.952 113.31C179.452 112.059 180.036 110.839 180.614 109.622C182.11 106.476 183.7 103.373 185.282 100.269C186.63 97.6254 188 94.9916 189.292 92.3205C189.52 91.8486 190.958 89.3804 189.256 89.8761ZM210.692 103.031C210.697 102.997 210.695 102.963 210.686 102.931C210.684 102.922 210.686 102.912 210.684 102.903C210.52 102.317 209.724 101.761 209.318 101.357C208.162 100.208 206.98 99.0823 205.808 97.9492C204.389 96.5787 202.974 95.2043 201.597 93.791C201.149 93.3308 200.711 92.8613 200.287 92.3792C200.073 92.1365 199.713 91.4379 199.621 91.6913C199.905 90.9111 198.489 90.8922 198.265 91.5083C197.758 92.9031 201.962 96.0922 202.775 96.8879C204.134 98.2167 205.505 99.5333 206.87 100.855C207.458 101.425 208.043 101.997 208.618 102.579C208.764 102.727 208.906 102.878 209.047 103.03C209.124 103.113 209.165 103.162 209.195 103.2C209.172 103.226 209.145 103.258 209.106 103.303C208.968 103.457 208.821 103.605 208.676 103.754C208.162 104.283 207.63 104.796 207.1 105.311C205.754 106.621 204.397 107.92 203.052 109.231C201.823 110.431 200.596 111.637 199.432 112.901C199.107 113.254 198.021 114.201 198.237 114.796C198.459 115.406 199.864 115.009 199.648 114.418C199.561 114.178 201.253 112.584 201.538 112.289C202.835 110.942 204.183 109.643 205.526 108.342C206.772 107.137 208.025 105.939 209.258 104.722C209.662 104.324 210.34 103.821 210.609 103.258C210.655 103.188 210.686 103.111 210.692 103.031ZM133.392 108.227H59.3456V63.8885H133.391V108.227H133.392ZM90.1958 100.565C81.6962 100.565 73.1972 100.565 64.6976 100.565C64.073 100.565 63.2336 101.51 64.188 101.51C72.6876 101.51 81.1867 101.51 89.6863 101.51C90.3108 101.51 91.1507 100.565 90.1958 100.565ZM127.381 100.565C117.288 100.565 107.195 100.565 97.1019 100.565C96.4773 100.565 95.638 101.51 96.5923 101.51C106.685 101.51 116.779 101.51 126.872 101.51C127.496 101.51 128.336 100.565 127.381 100.565ZM127.912 90.396C106.841 90.396 85.7694 90.396 64.6976 90.396C64.073 90.396 63.2336 91.3413 64.188 91.3413C85.2594 91.3413 106.331 91.3413 127.403 91.3413C128.027 91.3417 128.867 90.396 127.912 90.396ZM64.188 80.4455C72.6876 80.4455 81.1867 80.4455 89.6863 80.4455C90.3108 80.4455 91.1502 79.5003 90.1958 79.5003C81.6962 79.5003 73.1972 79.5003 64.6976 79.5003C64.073 79.5003 63.2336 80.4455 64.188 80.4455ZM96.5918 80.4455C106.685 80.4455 116.778 80.4455 126.871 80.4455C127.496 80.4455 128.335 79.5003 127.381 79.5003C117.288 79.5003 107.195 79.5003 97.1014 79.5003C96.4773 79.5003 95.6375 80.4455 96.5918 80.4455ZM127.912 69.3308C106.841 69.3308 85.7694 69.3308 64.6976 69.3308C64.073 69.3308 63.2336 70.276 64.188 70.276C85.2594 70.276 106.331 70.276 127.403 70.276C128.027 70.276 128.867 69.3308 127.912 69.3308ZM60.7564 211.148C59.6301 209.04 58.9052 206.698 58.4911 204.223C58.7391 206.984 59.595 209.271 60.7564 211.148ZM129.193 186.509C130.362 186.424 131.47 186.02 132.523 185.384C131.509 185.813 130.358 186.23 129.193 186.509ZM131.676 189.53C130.381 189.64 129.11 189.951 127.871 190.393C128.951 190.107 130.214 189.812 131.676 189.53ZM156.123 171.826C152.865 171.793 148.882 171.46 146.788 168.787C146.565 168.806 146.352 168.757 146.231 168.611C146.202 168.575 146.172 168.537 146.143 168.5C141.514 175.19 136.86 188.98 126.642 186.98C126.411 186.934 126.191 186.872 125.968 186.812C125.38 186.736 124.757 186.492 124.12 186.118C120.263 184.23 117.703 180.137 115.333 176.674C114.635 175.655 113.821 174.317 112.891 172.934C111.961 171.681 110.969 170.371 110.142 169.337C109.337 168.451 108.474 167.668 107.554 167.081C106.65 166.755 105.311 166.327 104.243 165.995C104.065 165.992 103.887 165.997 103.705 166.012C103.248 166.051 103.295 165.918 103.505 165.767C103.277 165.697 103.081 165.638 102.926 165.591C102.275 165.747 101.682 166.227 101.147 166.857C101.482 168.799 101.854 176.617 97.7635 175.029C95.4772 174.141 93.9913 171.013 93.5539 168.75C93.0876 166.34 93.0652 163.886 93.4214 161.466C93.0652 161.393 92.601 161.303 92.164 161.231C91.803 161.18 91.443 161.14 91.0834 161.108C90.5213 161.109 87.2909 161.234 84.6933 161.48C79.9468 162.471 75.576 165.005 71.9637 168.589C71.2558 169.292 70.5782 170.028 69.9185 170.783L64.5198 178.508C61.6703 183.702 59.8737 189.477 59.5229 195.34C59.2175 200.443 59.3738 206.075 61.8696 210.685C64.5553 215.646 69.3578 218.402 74.7317 219.551C75.6578 219.707 76.6848 219.877 77.741 220.045C87.0078 221.214 96.6717 219.492 105.556 216.922C106.46 216.661 107.363 216.393 108.255 216.096C108.256 216.094 108.256 216.094 108.256 216.092C108.438 215.563 108.608 215.028 108.757 214.489C108.763 214.465 108.769 214.441 108.776 214.418C109.07 212.868 109.489 210.682 109.875 208.756C110.132 206.25 110.035 203.725 109.37 201.318C109.133 201.217 109.019 201.038 109.234 200.831C109.084 200.35 108.904 199.875 108.705 199.405C104.568 201.924 99.3726 203.14 94.6758 203.892C90.0394 204.633 83.7209 205.477 79.4568 202.89C75.2525 200.34 76.1016 194.784 77.1729 190.725C78.4649 185.827 80.7078 181.289 82.1849 176.464C82.3559 175.907 83.793 175.727 83.6084 176.331C82.3573 180.418 80.4652 184.283 79.2249 188.378C78.158 191.9 76.1357 198.204 79.3452 201.233C82.9429 204.628 89.7774 203.762 94.1994 203.054C97.3542 202.55 100.767 201.875 103.902 200.698C101.654 193.745 103.118 187.298 104.591 180.333C104.725 179.696 106.171 179.525 106.022 180.231C104.583 187.033 103.123 193.347 105.261 200.147C106.371 199.661 107.434 199.102 108.421 198.451C108.671 198.286 109.064 198.285 109.329 198.384C109.592 198.347 109.834 198.381 109.909 198.541C110.133 199.022 110.328 199.512 110.498 200.009C117.545 195.418 124.952 188.073 133.815 188.542C133.876 188.546 133.929 188.553 133.976 188.562C137.704 187.982 141.512 190.765 144.089 193.131C144.321 193.344 144.564 193.574 144.809 193.811L144.875 193.847C148.16 191.168 150.821 187.585 152.894 183.945C154.954 180.33 156.891 176.237 156.887 171.994C156.877 171.997 156.868 172 156.859 172.003C156.401 172.146 155.629 172.055 156.123 171.826Z" fill="#212020"/>
<path d="M100.705 151.018C100.695 149.931 100.477 148.309 99.0252 148.571C98.8956 148.595 98.3412 148.624 98.4357 148.344C98.5317 148.057 98.9984 147.953 99.2493 147.908C99.9576 147.779 100.91 147.745 101.45 148.323C102.031 148.944 102.109 149.83 102.117 150.64C102.121 151.124 100.708 151.368 100.705 151.018ZM123.633 160.517C125.537 159.249 125.495 156.875 125.175 154.848C125.077 154.226 123.662 154.577 123.764 155.225C124.009 156.78 124.211 158.912 122.708 159.914C121.911 160.445 123.082 160.885 123.633 160.517ZM119.169 165.465C119.49 165.537 119.93 165.434 120.167 165.198C120.229 165.136 120.291 165.075 120.355 165.015C120.375 164.997 120.537 164.864 120.483 164.903C120.511 164.885 120.539 164.868 120.567 164.851C120.57 164.85 120.586 164.842 120.596 164.838C120.607 164.838 120.611 164.837 120.627 164.837C120.952 164.829 121.365 164.74 121.557 164.447C121.737 164.172 121.406 164.003 121.168 164.009C120.31 164.03 119.629 164.345 119.029 164.943C118.819 165.152 118.865 165.397 119.169 165.465ZM35.4238 162.06C34.8611 162.043 33.9301 162.876 34.8864 162.902C43.3426 163.143 44.0671 175.557 44.7111 181.698C45.9772 193.773 49.952 205.345 50.0368 217.583C50.0412 218.205 51.4554 217.914 51.452 217.421C51.3638 204.672 47.3432 192.513 45.9733 179.921C45.2655 173.411 44.0364 162.304 35.4238 162.06ZM201.175 198.87C202.56 201.673 197.688 204.693 195.903 205.865C190.725 209.265 185.048 211.924 179.409 214.464C172.952 217.373 166.401 220.068 159.836 222.724C155.95 224.295 151.889 225.685 148.161 227.61C147.922 227.733 147.676 227.729 147.488 227.656C147.023 227.875 146.433 228.012 145.681 228.042C142.15 228.185 138.755 227.345 135.308 226.708C133.126 226.305 130.921 226.106 128.746 225.668C124.336 224.781 119.956 223.735 115.581 222.69C114.406 222.41 113.231 222.129 112.058 221.843C110.836 221.545 111.272 217.722 111.41 216.938C111.002 216.77 111.018 216.239 111.685 216.096C118.846 214.559 126.001 212.367 132.723 209.455C132.372 209.251 132.026 208.994 131.687 208.678C129.921 207.039 128.592 203.559 126.114 202.884C122.449 201.887 119.93 208.094 118.443 210.404C116.534 213.368 114.034 215.025 110.447 215.127C110.319 215.131 110.214 215.114 110.127 215.083C109.965 215.517 109.771 215.901 109.528 216.191C109.001 216.825 107.378 217.015 106.662 217.227C104.166 217.969 101.641 218.623 99.0934 219.162C89.8577 221.119 79.1147 222.577 70.0403 219.143C65.5598 217.448 62.611 214.62 60.7554 211.146C59.6291 209.039 58.9042 206.697 58.4901 204.222C57.9932 201.255 57.9391 198.101 58.1617 194.949C59.1161 181.447 68.5666 166.102 81.7469 161.591C81.6494 161.546 81.5749 161.476 81.5413 161.373C80.6133 158.542 79.8835 155.61 78.5944 152.911C77.7658 151.176 76.2288 147.906 73.9683 147.713C70.9761 147.458 67.8003 148.131 64.8057 148.842C64.7877 148.92 64.774 148.999 64.7541 149.077C64.6693 149.404 63.3028 149.585 63.3656 149.341C63.3798 149.287 63.39 149.231 63.4032 149.177C63.1454 149.239 62.8887 149.3 62.6349 149.359C57.8933 150.469 53.1912 151.763 48.5402 153.205C46.6354 153.796 44.6322 154.342 42.7113 155.041C41.9396 155.675 40.9672 156.122 39.762 156.311C39.7323 156.327 39.7011 156.34 39.6718 156.356C39.4117 156.492 39.1345 156.483 38.9435 156.394C38.8739 156.399 38.8047 156.403 38.7336 156.405C29.076 160.231 28.9269 172.838 29.9246 181.882C30.729 189.177 32.0048 196.259 33.7543 203.383C34.3827 205.941 34.9843 208.511 35.7375 211.036C36.2193 212.65 36.7601 215.819 38.3073 216.81C38.9245 217.204 37.6399 217.826 37.1985 217.544C35.5748 216.504 34.9936 213.651 34.4904 211.964C33.6378 209.107 32.9553 206.208 32.2328 203.316C30.3241 195.677 28.926 187.952 28.3053 180.095C27.6004 171.163 28.6332 160.521 36.9525 156.272C26.5788 154.239 26.4278 130.939 33.3002 131.287C33.4556 131.094 33.7304 130.949 34.012 130.971C40.5405 128.006 50.0261 123.787 56.3816 128.205C59.5682 130.419 61.6542 134.277 63.0587 137.793C64.3103 140.927 65.4634 144.537 64.9699 147.963C65.0907 147.938 65.2115 147.911 65.3323 147.886C68.3425 147.271 72.536 145.977 75.5847 147.034C77.7073 147.77 79.1576 150.635 80.0058 152.533C81.23 155.274 82.0202 158.151 82.9526 160.995C82.9784 161.074 82.9692 161.149 82.939 161.219C86.2561 160.265 89.7929 159.999 93.4778 160.613C93.4822 160.61 93.4847 160.607 93.489 160.604C93.5246 160.58 93.5572 160.554 93.5928 160.53C93.6639 160.402 93.8252 160.298 94.0132 160.227C95.6447 159.039 97.0108 157.586 98.3782 156.118C96.85 156.494 95.2696 156.26 94.3387 154.665C92.9288 152.249 93.0652 148.951 94.7654 146.683C95.3349 145.923 96.0437 145.26 96.8251 144.728C96.5967 144.798 96.4578 144.843 96.4578 144.843L96.4871 144.435C96.2951 144.403 96.1553 144.305 96.1568 144.118C96.2113 135.016 98.8971 124.709 108.17 120.803C109.807 120.114 111.486 119.713 113.153 119.575C113.77 119.456 114.421 119.451 115.087 119.534C119.518 119.712 123.697 121.763 126.539 125.326C126.786 123.768 127.767 122.491 129.816 123.017C133.452 123.949 134.3 128.533 132.958 131.591C132.416 132.825 131.657 133.77 130.741 134.491C130.581 134.702 130.298 134.886 129.925 135.047C125.372 137.756 117.876 136.098 112.796 135.52C112.674 137.736 112.253 139.856 111.46 141.772C111.415 141.911 111.368 142.046 111.317 142.174C111.229 142.393 111.102 142.629 110.945 142.877C109.929 144.85 108.456 146.556 106.443 147.868C108.155 148.266 109.82 148.879 111.575 149.143C111.652 146.433 112.298 143.477 113.765 141.519C113.925 141.306 114.526 141.172 114.876 141.216C120.093 138.243 122.363 144.052 121.767 149.151C122.761 149.151 123.754 149.151 124.748 149.151C124.773 149.151 124.801 149.153 124.829 149.156C125.061 146.559 125.763 143.83 127.079 141.846C127.207 141.654 127.671 141.521 128.022 141.517C128.381 141.272 128.732 141.08 129.074 140.936C129.016 139.218 128.96 137.561 128.955 136.01C128.953 135.458 130.374 135.197 130.376 135.871C130.381 137.452 130.415 139.035 130.447 140.618C132.06 140.582 133.255 141.858 133.538 144.211C133.904 147.256 133.73 152.694 130.915 154.717C130.534 154.99 130.146 155.206 129.758 155.375C129.132 159.11 127.954 162.876 125.423 165.662C121.728 169.73 116.477 170.845 111.343 168.89C111.308 168.877 111.273 168.861 111.238 168.847C112.057 169.742 112.795 170.709 113.465 171.617C116.551 175.794 119.108 180.879 123.182 184.212C125.351 185.986 127.348 186.642 129.193 186.508C130.362 186.423 131.469 186.019 132.522 185.383C138.006 182.069 141.989 172.404 145.206 168.101C145.284 167.997 145.458 167.92 145.657 167.868C142.918 164.109 140.342 157.297 143.596 153.371C144.836 151.876 146.611 151.157 148.428 150.593C148.93 150.437 149.421 150.265 149.908 150.087C153.385 145.08 149.395 131.672 158.318 131.947C163.381 132.103 162.734 140.266 161.731 145.648C161.854 145.595 161.98 145.56 162.089 145.56C164.308 145.551 165.668 146.296 166.423 147.463C169.358 147.812 170.777 149.644 171.195 151.944C176.644 153.315 173.737 160.065 171.362 163.154C170.76 163.937 169.287 165.376 167.875 166.158C167.996 166.173 168.052 166.216 167.974 166.298C165.366 169.058 161.849 170.419 158.3 171.552C158.327 176.057 156.237 180.535 153.931 184.303C151.635 188.054 148.894 191.677 145.369 194.366C147.483 196.512 149.69 199.413 149.449 202.393C155.445 200.477 161.178 197.72 167.039 195.453C167.455 195.293 167.913 195.461 168.017 195.697C178.913 195.78 189.891 196.572 200.605 198.576C200.717 198.578 200.825 198.597 200.919 198.636C201.12 198.683 201.19 198.769 201.175 198.87ZM39.0668 155.391C39.5447 155.231 40.0358 155.083 40.5536 154.959C40.9784 154.772 41.4096 154.596 41.8466 154.428C44.6979 152.198 44.0271 146.673 43.0825 143.553C41.7589 139.181 38.8666 133.44 34.0353 132.107C33.8546 132.291 33.5677 132.419 33.2861 132.362C29.2182 131.548 30.0416 142.634 30.3446 144.543C31.0909 149.242 33.2466 155.778 39.0668 155.391ZM63.5849 148.261C64.4744 142.401 60.9766 134.916 57.3107 130.733C51.3692 123.951 41.8202 127.96 34.7339 131.146C40.3919 132.789 43.8386 139.485 44.9138 144.838C45.5217 147.864 45.4301 151.35 43.9058 153.7C45.6922 153.117 47.5123 152.618 49.249 152.092C53.978 150.661 58.7541 149.322 63.5849 148.261ZM171.318 153.007C171.467 155.74 170.441 158.873 168.992 160.931C168.192 162.065 167.255 163.382 166.109 164.361C166.267 166.143 167.13 166.427 168.476 165.115C169.809 163.816 170.927 162.241 171.728 160.562C172.945 158.01 173.705 154.53 171.318 153.007ZM166.949 148.643C167.889 151.866 166.001 156.815 164.343 159.476C163.856 160.258 163.252 161.178 162.536 162.003C162.561 162.838 162.708 165.275 163.866 164.686C164.701 164.261 165.401 163.588 166.016 162.893C167.129 161.634 168.193 160.241 168.918 158.716C169.754 156.958 170.207 154.5 169.832 152.419C169.781 152.409 169.733 152.395 169.68 152.385C169.55 152.359 169.623 152.276 169.783 152.184C169.437 150.568 168.565 149.212 166.949 148.643ZM160.926 149.266C161.371 150.378 161.396 151.716 161.031 152.781C160.302 154.901 158.544 156.51 156.465 157.577C156.863 157.465 157.333 157.514 157.329 157.865C157.322 158.683 157.334 164.386 159.508 163.304C160.093 163.013 160.626 162.591 161.113 162.095C161.112 162.029 161.109 161.962 161.107 161.9C161.101 161.631 161.418 161.434 161.755 161.374C162.602 160.318 163.283 159.076 163.822 158.014C165.621 154.463 168.089 146.398 161.589 146.389C161.351 147.572 161.109 148.572 160.926 149.266ZM151.564 149.448C152.854 148.925 154.127 148.371 155.45 147.863C156.653 147.402 158.655 146.813 159.82 147.726C159.862 147.759 159.9 147.796 159.94 147.831C160.434 145.564 160.742 143.232 160.816 140.932C160.891 138.616 161.061 134.38 158.695 132.966C154.282 130.329 153.645 138.074 153.421 140.54C153.159 143.413 153.153 146.896 151.564 149.448ZM147.034 167.378C147.289 167.33 147.518 167.341 147.584 167.47C149.394 170.975 153.907 171.24 157.405 171.256C157.52 171.257 157.576 171.274 157.594 171.3C157.695 171.279 157.794 171.266 157.886 171.258C161.022 170.252 164.084 169.048 166.45 166.681C165.651 166.78 165.013 166.421 164.774 165.266C164.443 165.435 164.098 165.574 163.735 165.666C162.009 166.105 161.417 164.684 161.211 163.267C160.461 163.835 159.624 164.222 158.7 164.255C155.774 164.361 155.898 159.945 155.915 158.033C155.915 157.943 155.966 157.86 156.047 157.787C154.325 158.593 152.421 159.037 150.708 159.091C149.744 159.122 150.058 158.128 150.844 158.103C154.138 158 159.864 155.778 159.812 151.748C159.783 149.448 158.885 147.687 156.326 148.564C154.868 149.064 153.534 149.825 152.116 150.416C149.146 151.653 144.675 151.797 143.938 155.68C143.159 159.792 144.544 164.072 147.034 167.378ZM130.462 141.376C130.529 144.828 130.56 148.28 130.228 151.72C130.143 152.592 130.042 153.485 129.912 154.385C131.716 152.894 132.132 149.416 132.223 147.361C132.284 145.957 132.144 141.776 130.462 141.376ZM128.64 155.029C129.345 150.712 129.243 146.058 129.101 141.741C129.043 141.779 128.987 141.814 128.927 141.858C128.806 141.948 128.542 142.007 128.285 142.025C126.98 144.398 124.452 156.06 128.64 155.029ZM117.702 154.772C122.211 152.82 120.894 138.529 115.608 141.663C115.44 141.763 115.146 141.801 114.899 141.782C112.886 145.037 111.187 157.592 117.702 154.772ZM105.09 145.686C105.132 145.77 105.168 145.861 105.207 145.95L105.228 145.815C105.228 145.815 105.177 145.765 105.09 145.686ZM94.9237 160.737C94.9135 160.798 94.9028 160.858 94.8926 160.92C94.9846 160.988 94.9515 161.077 94.8507 161.169C94.268 164.881 94.3903 169.185 96.678 172.289C96.9577 172.668 98.5692 175.071 99.1976 173.944C99.5304 173.348 99.7394 172.7 99.8383 172.025C100.002 170.897 100.017 169.781 99.9187 168.664C99.3496 169.653 98.8776 170.649 98.5049 171.27C98.2257 171.735 96.7925 171.8 97.1715 171.169C98.7163 168.595 100.626 163.977 104.419 164.678C106.993 165.154 109.103 166.856 111.513 167.773C115.489 169.287 119.765 169.58 123.119 166.487C126.179 163.665 127.743 159.877 128.513 155.74C126.593 156.024 124.946 154.933 124.781 152.366C124.729 151.557 124.728 150.687 124.782 149.791C124.592 149.876 124.375 149.918 124.191 149.918C123.346 149.918 122.501 149.918 121.655 149.918C121.282 152.027 120.401 153.923 119.017 154.895C116.031 156.99 112.224 155.711 111.72 152.069C111.617 151.323 111.565 150.501 111.567 149.647C111.308 149.818 110.937 149.957 110.724 149.925C108.865 149.647 107.103 148.932 105.273 148.557C105.257 148.566 105.242 148.575 105.225 148.584C104.924 148.829 104.741 148.971 104.741 148.971L104.775 148.754C104.289 148.84 103.577 148.797 104.249 148.459C104.284 148.442 104.315 148.42 104.35 148.402C104.041 148.363 103.728 148.335 103.413 148.326C102.457 148.295 103.411 147.492 103.957 147.509C104.03 147.511 104.1 147.522 104.173 147.526C103.779 145.691 102.688 143.813 100.476 144.071C98.5775 144.293 96.7482 145.508 95.8235 147.193C94.1784 150.193 94.7893 158.019 99.9859 154.458C100.337 154.217 101.605 154.265 101.013 154.869C99.0242 156.896 97.2261 159.066 94.9237 160.737ZM109.877 208.755C110.133 206.25 110.036 203.725 109.372 201.318C109.135 201.217 109.02 201.038 109.235 200.831C109.086 200.35 108.905 199.875 108.706 199.405C104.569 201.924 99.374 203.14 94.6772 203.892C90.0409 204.633 83.7223 205.477 79.4582 202.89C75.2539 200.34 76.1031 194.784 77.1743 190.725C78.4663 185.827 80.7092 181.289 82.1863 176.464C82.3573 175.907 83.7944 175.727 83.6098 176.331C82.3588 180.418 80.4666 184.283 79.2263 188.378C78.1594 191.9 76.1372 198.204 79.3466 201.233C82.9443 204.628 89.7788 203.762 94.2008 203.054C97.3557 202.55 100.768 201.875 103.903 200.698C101.656 193.745 103.12 187.297 104.592 180.333C104.726 179.696 106.173 179.525 106.023 180.231C104.585 187.033 103.125 193.347 105.262 200.147C106.372 199.661 107.435 199.102 108.423 198.451C108.672 198.286 109.066 198.285 109.33 198.384C109.594 198.347 109.835 198.381 109.91 198.541C110.135 199.022 110.329 199.512 110.5 200.009C117.546 195.418 124.953 188.073 133.816 188.542C133.877 188.546 133.93 188.552 133.977 188.562C137.706 187.982 141.514 190.765 144.09 193.131C144.322 193.344 144.565 193.574 144.81 193.811C144.828 193.827 144.844 193.843 144.861 193.86C144.867 193.856 144.871 193.852 144.877 193.848C148.162 191.169 150.823 187.586 152.895 183.946C154.955 180.331 156.892 176.237 156.888 171.994C156.879 171.997 156.869 172 156.86 172.003C156.401 172.145 155.628 172.055 156.123 171.826C152.865 171.793 148.882 171.46 146.788 168.787C146.565 168.806 146.352 168.757 146.231 168.611C146.202 168.575 146.172 168.537 146.143 168.5C141.514 175.189 136.86 188.98 126.642 186.979C126.411 186.934 126.191 186.872 125.968 186.812C125.319 186.638 124.704 186.404 124.12 186.118C120.263 184.23 117.703 180.137 115.333 176.674C114.635 175.655 113.821 174.317 112.891 172.934C112.066 171.707 111.149 170.444 110.142 169.337C109.337 168.451 108.474 167.668 107.554 167.081C106.521 166.424 105.418 166.014 104.243 165.995C104.065 165.992 103.887 165.997 103.705 166.012C103.248 166.051 103.295 165.918 103.505 165.767C103.604 165.696 103.739 165.623 103.875 165.561C103.709 165.543 103.544 165.534 103.379 165.534C103.225 165.534 103.075 165.555 102.926 165.59C102.275 165.746 101.682 166.227 101.147 166.857C101.482 168.798 101.854 176.617 97.7634 175.028C95.4772 174.14 93.9913 171.012 93.5538 168.749C93.0876 166.339 93.0652 163.886 93.4213 161.465C93.4223 161.459 93.4238 161.453 93.4247 161.446C93.0033 161.362 92.5829 161.289 92.1639 161.23C91.803 161.18 91.4429 161.139 91.0834 161.107C88.9029 160.911 86.7623 161.048 84.6933 161.48C79.9468 162.471 75.576 165.004 71.9636 168.589C71.2558 169.291 70.5781 170.028 69.9185 170.782C67.8554 173.141 66.0377 175.74 64.5197 178.507C61.6703 183.701 59.8736 189.476 59.5229 195.34C59.2174 200.442 59.3738 206.074 61.8696 210.684C64.5553 215.646 69.3578 218.402 74.7317 219.55C75.1005 219.629 75.4722 219.701 75.8458 219.765C76.4753 219.873 77.1071 219.965 77.7409 220.044C87.0078 221.213 96.6717 219.491 105.556 216.921C106.46 216.66 107.363 216.392 108.255 216.095C108.256 216.093 108.256 216.093 108.256 216.091C108.438 215.561 108.608 215.027 108.757 214.488C108.763 214.464 108.769 214.44 108.776 214.417C109.281 212.584 109.68 210.676 109.877 208.755ZM136.662 208.423C136.707 208.394 136.755 208.373 136.805 208.354C137.836 205.399 135.402 201.184 133.555 199.051C130.623 195.666 126.627 196.205 122.577 196.239C121.622 196.248 122.557 195.4 123.114 195.395C127.313 195.359 131.939 194.797 134.862 198.486C136.306 200.309 138.167 203.154 138.462 205.816C139.808 201.294 137.161 196.35 133.555 193.498C133.195 193.213 134.493 192.662 134.869 192.96C136.641 194.361 138.144 196.218 139.101 198.277C139.402 198.235 139.7 198.302 139.79 198.542C140.591 200.685 142.509 202.527 144.52 203.575C145.17 203.913 147.181 204.991 147.7 203.927C147.736 203.854 147.76 203.776 147.789 203.7C147.412 203.568 147.426 203.086 147.972 202.872C148.04 202.079 147.863 201.239 147.651 200.507C146.812 197.616 144.594 195.211 142.321 193.309C140.098 191.45 136.905 188.99 133.809 189.477C133.679 189.498 133.575 189.497 133.492 189.482C133.43 189.494 133.369 189.502 133.309 189.499C132.761 189.47 132.216 189.484 131.676 189.53C130.381 189.639 129.11 189.951 127.871 190.393C125.214 191.342 122.706 192.895 120.444 194.389C117.195 196.535 114.102 198.92 110.796 200.981C111.62 204.005 111.563 207.239 111.037 210.33C110.877 211.268 110.747 212.755 110.432 214.066C110.473 214.059 110.515 214.054 110.56 214.052C115.363 213.916 116.943 210.351 119.136 206.748C120.407 204.659 122.411 202.198 124.998 201.78C130.071 200.96 132.03 211.348 136.662 208.423ZM139.317 207.023C141.071 206.601 142.669 205.638 144.21 204.702C142.703 204.017 141.254 203.009 140.126 201.747C140.352 203.509 140.131 205.31 139.317 207.023ZM114.166 216.457C125.107 219.155 136.631 218.831 147.645 221.181C147.959 220.88 148.604 220.772 148.815 221.024C156.866 217.004 165.409 213.849 173.687 210.349C179.179 208.028 184.665 205.694 190 203.03C192.354 201.854 194.686 200.586 197.118 199.573C197.467 199.428 197.825 199.278 198.19 199.142C187.79 197.318 177.141 196.637 166.594 196.596C160.839 198.877 155.185 201.537 149.27 203.38C148.713 205.134 146.87 205.537 145.197 205.075C143.315 206.212 141.352 207.405 139.181 207.833C138.912 207.886 138.716 207.845 138.588 207.765C138.507 207.787 138.424 207.803 138.341 207.814C138.294 207.999 138.239 208.181 138.168 208.359C138.123 208.472 138.009 208.568 137.866 208.643C137.922 208.781 137.863 208.945 137.609 209.105C136.313 209.925 135.045 210.217 133.831 209.91C133.767 209.978 133.674 210.043 133.538 210.103C127.338 212.807 120.773 214.911 114.166 216.457ZM147.562 226.344C148.003 225.081 147.676 223.484 147.523 222.116C147.487 222.115 147.454 222.112 147.424 222.105C136.047 219.563 124.094 220.012 112.79 217.119C112.596 218.417 112.662 219.717 113.084 220.974C113.134 220.993 113.205 221.016 113.317 221.043C114.49 221.327 115.662 221.609 116.836 221.887C120.358 222.725 123.882 223.558 127.422 224.315C131.632 225.216 135.91 225.856 140.153 226.581C141.39 226.792 146.94 228.123 147.562 226.344ZM199.844 199.442C199.764 199.427 199.683 199.413 199.603 199.399C198.57 199.366 197.065 200.285 196.209 200.695C195.14 201.208 194.078 201.734 193.018 202.265C190.41 203.572 187.801 204.885 185.141 206.085C180.89 208.003 176.594 209.821 172.295 211.629C164.505 214.906 156.465 217.88 148.923 221.711C149.058 223.32 149.269 224.966 148.828 226.179C151.938 224.699 155.238 223.538 158.417 222.251C164.458 219.809 170.495 217.349 176.454 214.711C182.215 212.162 188.044 209.551 193.415 206.244C195.073 205.223 200.85 202.167 199.844 199.442ZM157.666 201.442C148.77 204.8 140.203 208.958 131.359 212.446C130.429 212.813 131.302 213.072 131.869 212.849C140.714 209.361 149.281 205.203 158.176 201.845C159.112 201.491 158.234 201.227 157.666 201.442ZM161.563 203.059C152.667 206.418 144.101 210.577 135.256 214.063C134.326 214.43 135.199 214.69 135.767 214.466C144.611 210.979 153.178 206.82 162.074 203.462C163.01 203.108 162.131 202.845 161.563 203.059ZM148.573 217.981C147.842 217.968 147.113 217.922 146.385 217.867C145.985 218.027 145.587 218.193 145.185 218.351C144.618 218.574 143.745 218.315 144.675 217.948C144.831 217.886 144.987 217.821 145.144 217.758C143.364 217.583 141.589 217.344 139.808 217.182C139.112 217.466 138.415 217.751 137.715 218.026C137.147 218.25 136.274 217.99 137.204 217.623C137.651 217.448 138.095 217.264 138.541 217.084C137.989 217.048 137.435 217.02 136.881 217.01C135.925 216.993 136.753 216.044 137.388 216.055C138.456 216.075 139.518 216.152 140.578 216.254C141.941 215.688 143.297 215.106 144.649 214.515C144.01 214.469 143.369 214.432 142.727 214.421C141.771 214.403 142.599 213.454 143.234 213.466C144.345 213.486 145.45 213.57 146.553 213.677C147.852 213.1 149.147 212.513 150.44 211.921C149.819 211.878 149.196 211.843 148.572 211.831C147.617 211.814 148.445 210.865 149.08 210.876C150.151 210.895 151.217 210.974 152.281 211.076C153.547 210.491 154.811 209.904 156.074 209.315C155.523 209.279 154.971 209.251 154.418 209.241C153.463 209.224 154.291 208.275 154.925 208.286C155.921 208.304 156.913 208.372 157.902 208.463C158.737 208.074 159.571 207.684 160.406 207.297C160.83 207.1 161.257 206.905 161.682 206.709C161.211 206.681 160.738 206.66 160.264 206.652C159.309 206.634 160.137 205.686 160.771 205.697C161.699 205.714 162.621 205.775 163.542 205.857C164.816 205.276 166.093 204.696 167.369 204.113C166.95 204.089 166.531 204.07 166.11 204.062C165.154 204.045 165.983 203.096 166.617 203.107C167.492 203.123 168.363 203.181 169.232 203.255C170.465 202.684 171.693 202.103 172.915 201.511C172.595 201.496 172.276 201.479 171.956 201.473C171 201.455 171.829 200.507 172.463 200.518C173.21 200.531 173.954 200.578 174.696 200.636C176.015 199.978 177.324 199.304 178.613 198.6C178.983 198.398 180.275 198.408 179.447 198.86C178.262 199.506 177.059 200.127 175.849 200.736C177.708 200.919 179.561 201.169 181.422 201.332C182.994 200.558 184.551 199.76 186.083 198.923C186.453 198.721 187.744 198.731 186.917 199.183C185.497 199.959 184.055 200.7 182.601 201.423C183.118 201.455 183.636 201.479 184.155 201.489C185.111 201.506 184.283 202.455 183.648 202.444C182.71 202.427 181.776 202.365 180.843 202.281C179.614 202.875 178.378 203.458 177.137 204.031C177.528 204.052 177.918 204.071 178.309 204.078C179.265 204.096 178.437 205.044 177.802 205.033C176.954 205.018 176.109 204.962 175.266 204.891C173.994 205.473 172.721 206.049 171.451 206.627C171.788 206.644 172.125 206.662 172.463 206.668C173.419 206.685 172.591 207.634 171.956 207.623C171.155 207.608 170.357 207.557 169.56 207.492C169.101 207.703 168.64 207.913 168.181 208.126C167.393 208.491 166.605 208.858 165.817 209.225C166.084 209.237 166.351 209.253 166.618 209.257C167.574 209.275 166.746 210.224 166.111 210.212C165.384 210.199 164.661 210.154 163.939 210.099C162.699 210.676 161.458 211.252 160.215 211.825C160.401 211.832 160.586 211.844 160.772 211.848C161.728 211.865 160.9 212.814 160.265 212.802C159.607 212.791 158.952 212.752 158.297 212.704C157.033 213.282 155.767 213.855 154.498 214.42C154.64 214.424 154.783 214.435 154.926 214.437C155.882 214.455 155.054 215.403 154.419 215.392C153.778 215.38 153.139 215.344 152.5 215.298C151.173 215.878 149.841 216.448 148.505 217.004C148.697 217.011 148.888 217.024 149.08 217.027C150.037 217.044 149.208 217.993 148.573 217.981ZM170.403 203.367C172.237 203.556 174.067 203.797 175.904 203.947C177.174 203.363 178.44 202.772 179.7 202.168C177.846 201.973 175.997 201.73 174.138 201.587C172.899 202.192 171.654 202.784 170.403 203.367ZM164.712 205.972C166.543 206.164 168.37 206.404 170.206 206.548C171.496 205.959 172.791 205.372 174.085 204.782C172.255 204.593 170.43 204.352 168.596 204.2C167.302 204.794 166.006 205.383 164.712 205.972ZM159.041 208.579C160.888 208.776 162.731 209.018 164.583 209.155C165.681 208.643 166.779 208.131 167.876 207.621C168.046 207.542 168.216 207.465 168.386 207.386C166.554 207.201 164.726 206.958 162.892 206.801C162.163 207.134 161.436 207.467 160.712 207.802C160.155 208.061 159.598 208.32 159.041 208.579ZM153.417 211.191C155.266 211.393 157.111 211.634 158.967 211.762C160.237 211.178 161.505 210.589 162.773 209.999C160.934 209.82 159.102 209.572 157.262 209.407C155.981 210.003 154.699 210.597 153.417 211.191ZM147.701 213.794C149.539 213.997 151.374 214.236 153.219 214.359C154.522 213.783 155.82 213.198 157.117 212.608C155.285 212.434 153.46 212.186 151.627 212.016C150.321 212.615 149.012 213.208 147.701 213.794ZM147.185 216.934C148.56 216.37 149.928 215.791 151.293 215.2C149.479 215.028 147.673 214.785 145.859 214.613C144.498 215.212 143.132 215.798 141.761 216.374C143.568 216.572 145.372 216.806 147.185 216.934ZM261.585 121.828C261.585 136.864 261.585 151.9 261.585 166.937C261.585 167.164 261.323 167.343 261.025 167.423C261.122 167.631 260.984 167.939 260.531 168.089C253.339 170.482 247.071 174.844 240.149 177.846C240.149 181.866 240.149 185.886 240.149 189.906C245.494 185.755 252.899 187.619 258.87 189.793C259.37 189.63 260.374 189.688 259.816 190.103C260.363 189.697 260.538 192.192 260.112 192.753C257.601 196.066 252.933 198.052 249.404 200.053C244.648 202.75 239.905 205.481 235.111 208.11C233.295 209.106 231.423 210.37 229.443 211.022C228.522 211.325 227.719 211.457 226.75 211.458C226.467 211.458 226.174 211.332 225.886 211.222C225.721 211.268 225.548 211.269 225.397 211.2C225.293 211.152 225.187 211.11 225.082 211.067C224.817 211.069 224.682 210.999 224.643 210.899C222.39 210.1 219.888 210.08 217.721 209.047C216.322 208.38 213.884 206.361 214.729 204.461C215.255 203.279 217.143 202.107 218.169 201.421C219.612 200.456 221.113 199.593 222.681 198.843C226.325 197.098 230.14 195.678 233.56 193.501C233.65 193.444 233.753 193.41 233.859 193.392C233.859 189.347 233.859 185.303 233.859 181.259C227.693 184.722 221.621 188.346 215.481 191.853C212.405 193.61 209.319 195.36 206.159 196.964C206.122 196.983 206.085 196.997 206.049 197.014C206.049 197.023 206.049 197.03 206.049 197.038C206.049 197.442 205.222 197.695 204.831 197.501C204.359 197.649 203.876 197.761 203.371 197.853C202.376 198.034 201.727 197.409 200.822 197.471C200.802 197.473 200.787 197.472 200.768 197.472C200.349 197.643 199.757 197.609 199.757 197.186C199.757 186.29 199.757 175.393 199.757 164.497C199.757 156.807 199.757 149.116 199.757 141.426C199.437 141.355 199.409 141.098 199.757 140.928C199.757 140.879 199.757 140.83 199.757 140.78C199.242 140.823 198.79 140.541 199.553 140.238C209.714 136.198 220.194 132.861 230.543 129.34C236.311 127.378 242.039 125.362 247.736 123.201C250.745 122.059 253.92 120.438 257.131 120.011C258.056 119.888 259.657 120.045 260.704 120.648C261.106 120.533 261.585 120.599 261.585 120.98C261.585 121.103 261.585 121.227 261.585 121.351C261.604 121.355 261.625 121.354 261.643 121.359C262.046 121.454 261.883 121.665 261.585 121.828ZM201.16 140.287C201.17 140.321 201.176 140.358 201.176 140.398C201.176 140.515 201.176 140.632 201.176 140.749C201.922 140.787 202.633 140.969 203.45 141.013C205.178 141.107 207.024 140.186 208.632 139.629C211.516 138.63 214.407 137.654 217.302 136.687C223.511 134.614 229.734 132.581 235.947 130.524C241.232 128.775 246.371 126.744 251.527 124.651C253.831 123.715 256.136 122.767 258.493 121.97C258.911 121.828 259.407 121.638 259.916 121.496C258.048 119.167 251.839 122.316 249.69 123.129C246.733 124.249 243.784 125.393 240.811 126.472C236.222 128.138 231.568 129.635 226.949 131.216C218.341 134.162 209.637 136.97 201.16 140.287ZM204.629 196.814C204.629 186.042 204.629 175.27 204.629 164.497C204.629 156.945 204.63 149.393 204.63 141.84C204.63 141.755 204.669 141.677 204.731 141.608C204.566 141.641 204.401 141.669 204.234 141.682C203.266 141.762 202.174 141.429 201.176 141.365C201.176 149.026 201.176 156.688 201.176 164.35C201.176 175.133 201.176 185.917 201.176 196.701C202.684 196.649 202.963 197.392 204.629 196.814ZM235.598 168.765C235.635 168.912 235.488 169.052 235.277 169.155C235.277 178.989 235.277 188.822 235.277 198.656C235.277 198.667 235.273 198.675 235.272 198.685C236.464 199.28 237.829 199.674 238.817 199.035C238.764 198.977 238.73 198.903 238.73 198.804C238.73 187.909 238.73 177.012 238.73 166.116C238.73 166.103 238.735 166.09 238.736 166.077C238.55 166.071 238.413 166.018 238.409 165.906C238.373 165.072 237.353 164.766 236.67 165.064C235.256 165.679 235.287 167.518 235.598 168.765ZM240.149 190.87C240.149 193.122 240.149 195.375 240.149 197.628C240.581 197.502 241.166 197.495 241.108 197.63C239.82 200.647 235.983 200.275 233.576 198.964C233.522 198.935 233.655 198.831 233.859 198.725C233.859 197.346 233.859 195.966 233.859 194.588C228.741 197.647 222.603 199.146 217.975 202.957C211.985 207.892 223.467 208.963 226.201 210.21C226.316 210.263 226.393 210.326 226.443 210.395C226.464 210.401 226.48 210.404 226.503 210.41C228.459 210.946 230.249 209.857 231.854 208.997C233.979 207.857 236.086 206.684 238.18 205.489C242.15 203.22 246.168 201.033 250.12 198.736C252.219 197.516 254.388 196.327 256.365 194.915C257.163 194.345 259.613 192.831 259.124 191.462C259.027 191.192 258.725 190.903 258.559 190.617C258.475 190.625 258.401 190.622 258.35 190.603C252.783 188.525 245.27 185.942 240.396 190.74C240.348 190.788 240.258 190.832 240.149 190.87ZM260.237 167.299C260.192 167.244 260.165 167.173 260.165 167.086C260.165 152.058 260.165 137.029 260.165 122.001C258.689 122.087 256.5 123.346 255.378 123.788C252.684 124.851 250.01 125.964 247.324 127.047C242.621 128.943 237.842 130.547 233.026 132.133C227.083 134.091 221.136 136.039 215.207 138.037C212.481 138.956 209.755 139.879 207.044 140.84C206.613 140.993 206.17 141.174 205.72 141.331C205.911 141.375 206.049 141.489 206.049 141.693C206.049 149.245 206.048 156.797 206.048 164.35C206.048 174.956 206.048 185.564 206.048 196.171C207.33 195.492 208.612 194.814 209.881 194.111C212.54 192.638 215.18 191.129 217.81 189.605C223.151 186.508 228.467 183.367 233.859 180.359C233.859 176.474 233.859 172.59 233.859 168.705C233.859 168.583 233.935 168.476 234.051 168.39C233.863 166.675 234.555 165.136 236.364 164.516C237.344 164.18 239.753 163.954 239.821 165.53C239.822 165.555 239.817 165.58 239.811 165.605C240.006 165.647 240.15 165.761 240.15 165.969C240.15 169.612 240.15 173.256 240.15 176.899C246.941 173.868 253.147 169.673 260.237 167.299ZM222.984 78.8006C222.977 94.5047 222.656 110.206 222.637 125.91C197.256 125.91 171.876 125.91 146.497 125.91C146.208 125.91 144.89 126.474 145.578 126.474C171.264 126.474 196.949 126.474 222.635 126.474C222.635 126.618 222.634 126.761 222.634 126.905C222.634 127.301 224.046 127.047 224.046 126.527C224.052 110.492 224.388 94.459 224.395 78.4234C224.395 78.0268 222.984 78.2812 222.984 78.8006ZM146.043 125.482C146.05 109.778 146.371 94.0764 146.39 78.372C171.887 78.372 197.383 78.372 222.88 78.372C223.169 78.372 224.486 77.8078 223.799 77.8078C198.031 77.8078 172.264 77.8078 146.496 77.8078C146.47 77.8078 146.433 77.8141 146.392 77.8224C146.392 77.6738 146.393 77.5258 146.393 77.3777C146.393 76.981 144.982 77.2354 144.982 77.7549C144.975 93.79 144.639 109.823 144.632 125.859C144.632 126.256 146.043 126.001 146.043 125.482ZM208.677 103.753C208.162 104.283 207.63 104.795 207.101 105.311C205.755 106.621 204.398 107.92 203.053 109.231C201.823 110.431 200.597 111.636 199.433 112.9C199.108 113.254 198.021 114.2 198.237 114.795C198.46 115.406 199.864 115.008 199.649 114.418C199.561 114.177 201.253 112.584 201.538 112.288C202.835 110.941 204.184 109.643 205.527 108.341C206.772 107.136 208.025 105.939 209.259 104.721C209.662 104.323 210.34 103.821 210.609 103.257C210.646 103.202 210.668 103.14 210.681 103.077C210.683 103.069 210.688 103.061 210.69 103.053C210.692 103.045 210.69 103.038 210.691 103.03C210.694 102.997 210.691 102.964 210.685 102.931C210.683 102.921 210.686 102.912 210.683 102.902C210.52 102.316 209.724 101.76 209.318 101.356C208.161 100.207 206.98 99.0818 205.807 97.9487C204.388 96.5782 202.973 95.2037 201.596 93.7905C201.149 93.3303 200.71 92.8608 200.286 92.3787C200.073 92.136 199.713 91.4373 199.62 91.6908C199.905 90.9106 198.489 90.8917 198.265 91.5077C197.757 92.9025 201.961 96.0917 202.774 96.8874C204.133 98.2162 205.504 99.5328 206.869 100.855C207.457 101.424 208.043 101.996 208.617 102.579C208.763 102.727 208.905 102.877 209.047 103.03C209.123 103.112 209.165 103.162 209.194 103.199C209.172 103.226 209.145 103.258 209.105 103.302C208.968 103.457 208.822 103.604 208.677 103.753ZM167.482 93.8842C167.776 93.5779 169.44 91.952 169.38 91.7888C169.144 91.1393 170.55 90.748 170.792 91.4116C171.018 92.035 169.949 92.9676 169.605 93.3409C168.441 94.6047 167.215 95.8106 165.986 97.0102C164.552 98.4075 163.104 99.7896 161.672 101.188C161.176 101.672 160.676 102.153 160.199 102.655C159.956 102.909 159.882 103.019 159.855 103.041C159.885 103.077 159.924 103.123 159.985 103.189C160.126 103.341 160.269 103.492 160.414 103.64C160.932 104.166 161.46 104.683 161.99 105.197C163.338 106.506 164.696 107.805 166.038 109.118C167.334 110.385 168.657 111.643 169.855 113.005C170.21 113.409 170.979 114.064 170.756 114.674C170.555 115.228 169.143 115.285 169.414 114.541C169.424 114.514 167.772 112.756 167.428 112.403C166.123 111.063 164.783 109.758 163.439 108.457C162.193 107.253 160.936 106.059 159.707 104.837C159.308 104.44 158.506 103.881 158.345 103.304C158.33 103.25 158.333 103.197 158.345 103.146C158.349 103.099 158.359 103.051 158.373 103.001C158.554 102.352 159.537 101.669 159.988 101.227C161.149 100.088 162.324 98.9629 163.492 97.8312C164.835 96.5286 166.184 95.2305 167.482 93.8842ZM159.837 103.016C159.83 102.974 159.814 102.888 159.719 102.784C159.772 102.846 159.8 102.911 159.805 102.976C159.811 102.985 159.826 103.003 159.837 103.016ZM188.567 90.8455C188.412 91.2208 188.235 91.5874 188.061 91.9539C187.554 93.0225 187.018 94.0779 186.486 95.1338C184.935 98.206 183.357 101.264 181.809 104.337C181.27 105.408 175.742 114.967 177.396 115.704C177.953 115.953 179.033 115.156 178.221 114.794C178.597 114.962 178.756 113.8 178.952 113.31C179.452 112.059 180.036 110.839 180.614 109.622C182.11 106.476 183.7 103.373 185.282 100.269C186.63 97.6254 188 94.9916 189.292 92.3204C189.52 91.8481 190.957 89.3799 189.256 89.8755C188.398 90.1251 188.636 91.0378 189.501 90.7858C188.384 91.1121 188.888 90.0634 188.567 90.8455ZM135.538 62.666C135.531 78.5671 135.206 94.4668 135.187 110.368C109.485 110.368 83.7842 110.368 58.0828 110.368C57.7939 110.368 56.4766 110.933 57.1645 110.933C83.1714 110.933 109.178 110.933 135.185 110.933C135.185 111.078 135.184 111.224 135.184 111.369C135.184 111.766 136.595 111.511 136.595 110.992C136.602 94.7571 136.942 78.5239 136.95 62.2888C136.95 61.8917 135.539 62.1465 135.538 62.666ZM57.622 109.932C57.6288 94.0308 57.9537 78.1312 57.9737 62.2291C83.793 62.2291 109.612 62.2291 135.431 62.2291C135.72 62.2291 137.037 61.6649 136.349 61.6649C110.261 61.6649 84.1725 61.6649 58.0838 61.6649C58.0565 61.6649 58.0185 61.6712 57.9756 61.68C57.9756 61.5295 57.9766 61.3795 57.9766 61.229C57.9766 60.8323 56.5653 61.0867 56.5653 61.6062C56.5585 77.8408 56.2179 94.074 56.2106 110.309C56.2102 110.707 57.6215 110.452 57.622 109.932ZM127.912 69.3308C106.841 69.3308 85.7694 69.3308 64.6975 69.3308C64.073 69.3308 63.2336 70.276 64.188 70.276C85.2593 70.276 106.331 70.276 127.403 70.276C128.027 70.276 128.867 69.3308 127.912 69.3308ZM64.188 80.4455C72.6875 80.4455 81.1866 80.4455 89.6862 80.4455C90.3108 80.4455 91.1502 79.5002 90.1958 79.5002C81.6962 79.5002 73.1971 79.5002 64.6975 79.5002C64.073 79.5002 63.2336 80.4455 64.188 80.4455ZM97.1014 79.5002C96.4768 79.5002 95.6374 80.4455 96.5918 80.4455C106.685 80.4455 116.778 80.4455 126.871 80.4455C127.496 80.4455 128.335 79.5002 127.381 79.5002C117.288 79.5002 107.195 79.5002 97.1014 79.5002ZM64.188 91.3417C85.2593 91.3417 106.331 91.3417 127.403 91.3417C128.027 91.3417 128.867 90.3965 127.912 90.3965C106.841 90.3965 85.7694 90.3965 64.6975 90.3965C64.073 90.396 63.2336 91.3417 64.188 91.3417ZM64.188 101.51C72.6875 101.51 81.1866 101.51 89.6862 101.51C90.3108 101.51 91.1502 100.565 90.1958 100.565C81.6962 100.565 73.1971 100.565 64.6975 100.565C64.073 100.565 63.2336 101.51 64.188 101.51ZM97.1014 100.565C96.4768 100.565 95.6374 101.51 96.5918 101.51C106.685 101.51 116.778 101.51 126.871 101.51C127.496 101.51 128.335 100.565 127.381 100.565C117.288 100.565 107.195 100.565 97.1014 100.565Z" fill="#FF835B"/>
</svg>
