<svg width="247" height="224" viewBox="0 0 247 224" fill="none" xmlns="http://www.w3.org/2000/svg">
<path d="M86.5124 189.682C90.126 189.729 93.7397 189.771 97.3533 189.808H86.4439C86.4443 189.808 86.4684 189.763 86.5124 189.682ZM105.299 179.657C105.21 179.712 105.103 179.754 104.984 179.771C101.513 180.275 97.9981 181.184 94.8301 182.574C91.7604 183.92 88.3153 185.868 87.6846 189.158C97.2226 189.28 106.761 189.377 116.299 189.385C116.988 186.478 117.212 183.483 117.805 180.559C117.717 180.56 117.648 180.555 117.609 180.543C113.44 181.756 109.322 180.894 105.299 179.657ZM105.414 133.065C108.393 133.528 111.432 133.14 114.385 132.632C112.673 131.824 111.141 130.67 111.417 128.701C111.551 127.746 111.938 126.83 112.481 125.999C110.281 125.678 108.203 124.85 106.1 124.208C103.693 123.473 100.514 122.636 100.308 125.899C100.094 129.28 101.372 132.436 105.414 133.065ZM181.048 69.642L181.026 69.7199C181.213 69.7598 181.398 69.8019 181.584 69.8441C181.243 69.7143 181.048 69.642 181.048 69.642ZM202.019 98.6298C201.507 93.8038 200.701 88.7366 199.046 84.1112C196.269 76.3506 189.275 72.5 181.008 70.6422C181.089 70.6941 181.129 70.7743 181.093 70.8894C179.473 76.0616 178.179 81.2958 177.148 86.5906C175.977 92.6151 174.846 98.6851 174.8 104.819C174.8 104.857 174.789 104.892 174.774 104.927C178.811 103.678 183.01 102.517 187.182 102.205C187.15 102.155 187.133 102.095 187.138 102.022C187.493 96.4947 186.757 90.9903 186.723 85.4648C186.72 84.9786 187.937 84.8096 187.941 85.3801C187.975 90.9052 188.711 96.41 188.356 101.937C188.351 102.015 188.313 102.084 188.257 102.144C189.685 102.089 191.107 102.139 192.518 102.329C193.326 102.439 192.705 103.215 192.105 103.134C184.693 102.133 176.827 105.162 169.853 107.3C169.541 109.487 169.237 111.676 169.018 113.873C169.023 113.876 169.028 113.881 169.031 113.885C174.146 113.885 179.262 113.885 184.378 113.885C187.317 113.885 190.289 113.993 193.224 113.835C196.633 113.652 201.274 113.193 202.803 109.951C202.816 109.924 202.833 109.898 202.853 109.875C204.232 106.501 202.384 102.067 202.019 98.6298ZM132.32 114.426L136.044 114.541C135.998 114.512 135.95 114.486 135.906 114.456C134.711 114.444 133.516 114.436 132.32 114.426ZM155.045 74.1575C151.241 75.6909 149.698 77.3703 148.441 78.8612C148.154 79.2815 147.889 79.7271 147.655 80.208C144.486 86.7272 144.534 94.0352 141.67 100.639C142.441 100.582 143.217 100.545 143.996 100.536C144.808 100.527 143.985 101.159 143.531 101.164C142.426 101.176 141.331 101.243 140.242 101.349L140.107 101.502L139.558 101.419C132.973 102.161 126.621 104.331 120.095 105.468C121.365 107.069 122.015 109.617 121.567 111.487C121.345 112.418 120.822 113.071 120.127 113.504C120.107 113.56 120.087 113.613 120.069 113.661C120.453 113.669 120.837 113.677 121.221 113.683C123.363 113.716 125.506 113.739 127.648 113.76C130.157 113.784 132.667 113.8 135.177 113.823C135.027 113.657 134.885 113.48 134.761 113.282C133.454 111.194 133.471 108.592 133.205 106.265C133.2 106.23 133.213 106.196 133.233 106.164C133.152 105.953 133.635 105.565 134.022 105.565C138.616 105.565 143.211 105.565 147.806 105.565C147.989 103.626 148.403 101.669 148.75 99.7707C149.698 94.5842 150.919 89.4452 152.506 84.3874C152.595 84.1048 153.77 83.957 153.693 84.2008C152.162 89.0843 150.949 94.0495 150.033 99.0583C149.596 101.451 149.038 103.919 148.929 106.349C148.927 106.387 148.909 106.422 148.879 106.455C148.856 106.716 148.828 106.979 148.793 107.242C149.459 106.895 150.232 106.742 151.018 106.901C152.223 107.145 152.882 108.28 152.74 109.344C152.46 111.439 149.345 113.285 147.235 112.134C146.787 112.886 146.233 113.555 145.557 114.102L145.738 114.115C147.694 114.115 149.648 114.115 151.604 114.115C151.598 114.113 151.593 114.112 151.587 114.11C151.371 114.031 151.472 113.835 151.574 113.724C152.559 112.651 153.692 111.638 154.939 110.755C154.847 110.726 154.786 110.674 154.78 110.592C154.553 107.37 154.696 104.077 155.044 100.802C155.044 100.258 155.044 99.7996 155.044 99.4952C155.044 98.9075 155.324 97.5028 155.736 95.6992C155.928 94.5176 156.135 93.3447 156.352 92.1854C157.691 85.0271 159.629 77.4072 164.047 71.2183C162.276 71.7749 160.41 72.2591 158.577 72.8082C157.447 73.2191 156.247 73.6736 155.045 74.1575ZM136.788 101L127.384 103.258L125.374 103.843C129.446 102.899 133.492 101.789 137.611 101.124L136.788 101ZM151.545 109.502C151.616 108.125 150.213 106.591 148.882 107.991C148.838 108.037 148.756 108.078 148.658 108.112C148.451 109.242 148.127 110.357 147.645 111.368C147.76 111.367 147.861 111.385 147.922 111.435C149.434 112.675 151.466 111.044 151.545 109.502Z" fill="#212020"/>
<path d="M164.242 62.5884C163.112 63.37 161.687 63.1837 160.43 62.7845C160.421 62.7818 160.411 62.7811 160.403 62.7792C160.389 62.7642 160.374 62.7499 160.36 62.7352C160.035 62.3664 158.886 62.786 159.257 63.2048C160.856 65.0185 164.474 65.437 165.326 62.7976C165.35 62.7228 165.339 62.6641 165.308 62.617C165.463 62.3698 164.485 62.4202 164.242 62.5884ZM161.701 63.6797C162.438 63.7041 163.169 63.6161 163.859 63.3877C163.369 64.0541 162.498 64.0191 161.701 63.6797ZM155.189 55.3647C155.189 54.9884 155.189 54.6121 155.189 54.2359C155.189 53.7689 156.406 53.5886 156.406 54.1437C156.406 54.5199 156.406 54.8962 156.406 55.2725C156.404 55.7395 155.189 55.9198 155.189 55.3647ZM165.563 55.5529C165.563 55.1766 165.563 54.8003 165.563 54.424C165.563 53.957 166.779 53.7768 166.779 54.3318C166.779 54.7081 166.779 55.0844 166.779 55.4607C166.778 55.9277 165.563 56.1079 165.563 55.5529ZM217.298 114.115C213.722 114.115 210.146 114.115 206.57 114.115C206.582 114.099 206.594 114.084 206.601 114.067C210.838 104.559 216.724 77.8986 197.872 79.1032C194.268 74.0582 188.12 71.3252 181.584 69.8437C181.399 69.8016 181.213 69.7598 181.026 69.7195C180.845 69.6804 180.663 69.6424 180.482 69.6052C179.626 66.783 179.448 63.8377 179.434 60.9192C179.434 60.8093 179.387 60.728 179.312 60.6708C180.186 60.5982 181.01 60.2475 181.572 59.5532C182.487 58.4214 182.494 56.7683 182.217 55.4498C182.191 55.3222 182.157 55.1909 182.12 55.0588C182.12 55.0565 182.122 55.0543 182.122 55.052C182.381 52.062 183.582 48.9719 183.496 46.0139C183.506 44.8575 183.35 43.8216 182.918 43.1156C182.901 43.0882 182.884 43.0641 182.867 43.0374C182.68 42.6031 182.447 42.1738 182.156 41.7501C180.713 39.65 178.287 38.7762 176.131 40.088C176.133 39.9194 176.123 39.7606 176.105 39.6075C176.321 38.5505 176.106 36.8492 172.752 36.3424C167.773 35.5898 162.032 36.844 160.027 36.6558C158.022 36.4677 155.947 33.1439 153.388 34.0846C153.201 34.1539 153.012 34.2445 152.823 34.3522C152.587 34.3499 152.327 34.3981 152.194 34.4993C147.454 38.1113 148.065 43.7083 152.618 46.9651C152.835 47.1597 152.984 47.2534 153.041 47.2545C153.178 47.3433 153.316 47.431 153.459 47.5156H153.46C153.406 48.579 153.333 49.6417 153.255 50.7043C153.186 50.6957 153.097 50.6953 152.982 50.7092C148.071 51.3136 148.682 57.6432 152.891 58.4289C152.891 58.4913 152.894 58.5538 152.895 58.6159C152.895 58.6246 152.896 58.6332 152.896 58.6419C152.94 60.7905 153.289 63.0023 154.855 64.579C157.354 67.0972 162.002 67.4682 165.861 67.335C165.616 67.767 165.507 68.3882 165.373 68.7724C165.229 69.1845 165.094 69.5988 164.956 70.0127C164.859 70.1354 164.769 70.2625 164.674 70.3863C164.562 70.334 164.402 70.3235 164.198 70.3894C158.471 72.2403 151.323 73.1773 147.714 78.1654C142.933 84.7743 143.642 93.4117 140.495 100.608C140.473 100.659 140.466 100.703 140.466 100.745C139.51 100.843 138.559 100.971 137.613 101.124C133.493 101.789 129.447 102.899 125.376 103.843C121.508 104.741 117.614 105.484 113.611 105.549C113.327 105.033 113.035 104.521 112.75 104.008C112.475 103.514 111.789 101.623 111 101.628C110.492 101.632 109.743 102.335 110.556 102.329C110.223 102.332 110.302 102.232 110.495 102.513C110.624 102.702 110.739 102.897 110.856 103.092C111.2 103.665 111.521 104.249 111.842 104.832C112.196 105.474 112.563 106.115 112.899 106.767C112.358 106.664 111.814 106.585 111.286 106.515C111.249 106.419 111.136 106.347 110.912 106.334C109.172 106.228 108.244 107.66 108.626 108.983C108.027 109.401 107.322 110.064 107.664 110.723C107.639 110.739 107.613 110.751 107.591 110.768C106.963 111.233 106.201 111.964 106.738 112.719C106.786 112.786 106.847 112.843 106.908 112.9C106.658 112.933 106.388 112.996 106.295 113.067C105.357 113.787 105.917 114.236 106.842 114.507C96.7143 114.507 86.5862 114.507 76.4586 114.507C76.4594 114.497 76.4632 114.488 76.4632 114.478C76.4661 113.056 76.5055 111.635 76.5084 110.214C76.5092 109.802 75.8677 109.781 75.5159 109.985C73.3852 109.985 71.2549 109.985 69.1243 109.985L65.1023 109.793C65.109 109.774 65.114 109.755 65.114 109.735C65.1169 106.488 65.1559 103.241 65.192 99.9942L79.2519 99.9009C86.841 100.019 94.4301 100.113 102.02 100.118C102.356 100.301 103.064 100.116 103.064 99.7485C103.064 86.5312 103.064 73.3139 103.064 60.0966C103.064 59.7267 102.545 59.6729 102.185 59.8133C80.7648 59.8159 59.3452 59.9371 37.9247 59.9386C37.87 59.9386 37.8052 59.9499 37.7368 59.9675C37.5608 59.5642 36.548 59.7433 36.548 60.1832C36.5476 73.1261 36.5181 86.0691 36.5177 99.0121C36.5177 99.1615 36.604 99.2585 36.7289 99.3131C36.7609 99.3364 36.8177 99.3526 36.9032 99.3605C36.9376 99.3639 36.9754 99.3662 37.0202 99.3662C37.0272 99.3662 37.0343 99.3662 37.0413 99.3662C44.0906 99.3695 51.1395 99.452 58.1875 99.5581C58.1497 103.034 58.1058 106.51 58.1024 109.986C57.6755 109.986 57.2481 109.986 56.8207 109.986L49.6549 109.783L49.6196 109.986C49.5594 109.986 49.5001 109.986 49.4403 109.986C49.1719 109.735 48.4254 109.882 48.3316 110.231C48.164 110.349 48.0989 110.472 48.3134 110.513C48.2885 111.824 48.147 113.129 48.1358 114.44C48.1358 114.465 48.1408 114.486 48.1445 114.508C42.0645 114.508 35.9841 114.508 29.9041 114.508C29.8639 114.508 29.817 114.515 29.7676 114.525C29.4987 114.253 28.6361 114.448 28.6361 114.824C28.6361 116.705 28.6357 118.587 28.6357 120.468C28.6357 120.847 29.2361 120.862 29.5917 120.683C31.3273 120.683 33.0626 120.683 34.7978 120.683C34.7547 120.723 34.7269 120.767 34.7269 120.814C34.7281 143.684 34.8642 166.555 34.8654 189.425C34.8654 189.617 35.9754 189.472 36.0592 189.169C52.878 189.174 69.6948 189.463 86.512 189.682C90.1256 189.729 93.7392 189.771 97.3529 189.808C103.631 189.872 109.909 189.915 116.187 189.919C116.235 190.223 117.237 190.068 117.38 189.742C117.625 189.607 117.768 189.438 117.466 189.398C118.202 186.364 118.411 183.23 119.053 180.179C119.08 180.05 118.984 179.979 118.835 179.952C121.703 165.768 130.729 152.916 132.161 138.464C134.427 141.189 138.882 142.319 142.741 142.937C141.303 156.139 138.24 169.251 135.91 182.341C135.536 184.443 134.586 186.802 136.517 188.478C138.142 189.888 140.468 188.862 141.165 187.21C141.61 186.156 141.657 184.724 141.854 183.605C142.239 181.428 142.629 179.252 143.02 177.076C144.2 170.507 145.398 163.941 146.634 157.381C147.489 152.837 148.184 148.203 149.389 143.719C155.295 144.179 161.279 144.034 167.175 143.702C169.14 143.592 171.106 143.439 173.055 143.208C174.225 147.489 174.89 151.917 175.71 156.259C176.915 162.637 178.076 169.021 179.223 175.409C179.85 178.896 180.325 182.435 181.081 185.901C181.583 188.203 183.942 188.556 185.776 187.224C187.776 185.772 186.925 183.448 186.585 181.512C184.286 168.386 181.243 155.248 179.792 142.015C182.323 141.384 184.784 140.527 187.131 139.347C194.252 135.762 198.879 129.291 203.145 123.229C203.299 123.011 203.449 122.791 203.603 122.572C203.588 144.755 203.335 166.936 203.33 189.118C202.976 189.282 202.702 189.557 203.272 189.557C205.762 189.557 208.251 189.557 210.741 189.557C210.872 189.557 211.055 189.497 211.215 189.418C211.422 189.352 211.586 189.253 211.586 189.133C211.589 166.316 211.857 143.5 211.862 120.683C213.562 120.683 215.261 120.683 216.962 120.683C216.971 120.683 216.981 120.681 216.99 120.681C217.285 120.879 218.085 120.674 218.088 120.356C218.105 118.305 218.347 116.261 218.364 114.21C218.366 113.825 217.616 113.882 217.298 114.115ZM205.452 114.115C202.96 114.115 200.469 114.115 197.977 114.115C200.439 113.557 202.558 112.499 203.706 110.522C203.784 110.472 203.848 110.41 203.885 110.333C205.484 106.986 203.749 102.805 203.32 99.3778C202.623 93.8196 201.926 88.0992 199.865 82.789C199.419 81.6409 198.864 80.5854 198.22 79.6097C215.41 79.0791 209.314 105.347 205.452 114.115ZM157.472 92.5353C158.743 85.3447 160.679 77.6428 165.072 71.4091C167.514 75.9404 176.32 74.9651 179.76 71.3643C178.265 76.1895 177.058 81.0652 176.068 85.9968C174.815 92.2362 173.632 98.5522 173.584 104.91C173.583 105.073 173.688 105.171 173.835 105.219C172.248 105.717 170.689 106.219 169.169 106.679C169.101 106.699 169.033 106.728 168.967 106.761C168.661 106.735 168.218 106.844 168.095 107.033C168.359 106.626 167.565 106.939 167.089 106.995C166.354 107.082 165.619 107.168 164.884 107.262C163.304 107.463 161.706 107.698 160.187 108.149C158.701 108.591 157.284 109.256 155.969 110.071C155.596 104.262 156.462 98.2497 157.472 92.5353ZM158.613 112.215C157.702 112.433 156.881 112.792 156.039 113.172C155.874 113.243 155.708 113.315 155.543 113.387C154.712 113.809 153.818 113.881 152.862 113.602C153.213 113.219 153.608 112.872 153.997 112.522C155.997 110.725 158.41 109.244 161.129 108.537C163.01 108.048 165.005 107.877 166.941 107.652C167.319 107.608 168.068 107.612 168.622 107.451C168.313 109.623 168.012 111.799 167.795 113.981C164.874 114.322 162.022 112.711 159.088 112.684C159.427 112.448 159.209 112.073 158.613 112.215ZM180.526 70.5854C180.543 70.5726 180.56 70.5606 180.575 70.5463C180.615 70.5549 180.655 70.5624 180.694 70.5715C180.64 70.5719 180.584 70.5771 180.526 70.5854ZM157.942 113.061C157.94 113.088 157.984 113.105 158.101 113.103C160.232 113.069 162.198 113.73 164.203 114.115C161.176 114.115 158.149 114.115 155.122 114.115C156.044 113.826 156.946 113.392 157.942 113.061ZM199.046 84.1109C200.701 88.7366 201.508 93.8034 202.02 98.6294C202.385 102.067 204.232 106.5 202.853 109.874C202.833 109.897 202.816 109.923 202.803 109.95C201.274 113.192 196.633 113.651 193.224 113.835C190.288 113.993 187.317 113.884 184.378 113.884C179.262 113.884 174.146 113.884 169.031 113.884C169.028 113.879 169.023 113.876 169.018 113.872C169.237 111.676 169.541 109.486 169.853 107.299C176.827 105.161 184.693 102.132 192.105 103.133C192.705 103.214 193.326 102.438 192.518 102.329C191.108 102.138 189.686 102.088 188.257 102.143C188.313 102.083 188.351 102.015 188.356 101.936C188.711 96.4092 187.975 90.9045 187.941 85.3794C187.937 84.8085 186.72 84.9775 186.723 85.464C186.757 90.9891 187.493 96.4943 187.138 102.021C187.133 102.094 187.15 102.154 187.182 102.204C183.009 102.517 178.811 103.677 174.773 104.926C174.789 104.892 174.8 104.856 174.8 104.818C174.846 98.6843 175.977 92.6143 177.148 86.5899C178.178 81.2951 179.473 76.0608 181.093 70.8887C181.129 70.7735 181.089 70.693 181.008 70.6415C189.276 72.5 196.27 76.3506 199.046 84.1109ZM179.391 70.2607C177.046 74.0958 168.049 75.3192 166.08 70.7261C166.053 70.6618 166.004 70.6136 165.944 70.5775C165.944 70.5752 165.946 70.5734 165.947 70.5711C166.112 70.0687 166.28 69.5672 166.45 69.0667C166.58 68.6862 166.712 68.3062 166.849 67.9284C166.906 67.7707 166.966 67.6142 167.03 67.4588C167.039 67.4403 167.055 67.4125 167.072 67.3847C168.429 67.4667 170.038 67.0441 171.16 66.7231C174.324 65.8181 176.719 63.8061 178.22 61.1702C178.239 64.2249 178.43 67.3184 179.391 70.2607ZM178.35 60.7559C178.324 60.716 178.299 60.6757 178.276 60.6328C178.35 60.6441 178.423 60.6531 178.498 60.6611C178.442 60.6874 178.393 60.7198 178.35 60.7559ZM180.872 58.8206C180.469 59.951 179.726 60.3849 178.482 59.9721C178.385 59.9401 178.215 59.9593 178.039 60.0048C177.881 59.3948 177.835 58.6599 177.748 57.9743C177.8 57.9239 177.834 57.8686 177.836 57.8069C177.855 57.2658 178.078 56.6908 178.251 56.179C178.354 55.8735 178.477 55.5736 178.62 55.2816C178.65 55.2191 178.692 55.163 178.728 55.1036C179.131 55.0656 179.642 54.8206 179.455 54.6125C178.77 53.8468 177.714 54.8789 177.423 55.4366C177.31 55.6549 177.202 55.89 177.103 56.1331C176.731 55.7685 176.142 55.6552 175.172 55.9788C173.796 56.4375 172.772 57.621 171.775 58.5331C169.356 60.7442 164.29 59.8185 161.164 59.7922C161.149 59.7922 161.131 59.7937 161.111 59.7963C160.873 59.6627 160.186 59.7557 160.003 59.9916C159.793 60.2652 159.571 60.5241 159.307 60.7559C159.021 60.4394 158.991 59.8693 158.944 59.4863C158.808 58.3969 158.888 57.2951 158.891 56.2016C158.892 56.0917 158.832 56.0176 158.743 55.9702C158.977 55.5393 159.138 55.0592 159.195 54.5252C159.202 54.4613 159.199 54.4014 159.203 54.3386C160.113 54.421 160.832 54.9395 161.283 55.7154C161.326 55.7899 161.401 55.8389 161.493 55.8675C161.754 58.3055 164.641 59.4833 167.071 59.3568C169.429 59.2341 171.197 57.6161 171.264 55.4795C171.266 55.4313 171.26 55.3862 171.26 55.3388C171.674 55.3222 172.093 55.2473 172.48 55.18C173.343 55.0298 174.197 54.8368 175.06 54.684C175.092 54.7137 175.121 54.745 175.155 54.7739C175.184 54.7995 175.224 54.8168 175.269 54.8296C175.234 54.8718 175.197 54.9143 175.163 54.9557C174.877 55.3034 176.067 55.1721 176.267 54.9286C176.913 54.1448 178.138 52.5343 179.411 53.1856C180.338 53.6597 180.758 54.7273 180.985 55.6105C181.252 56.6592 181.239 57.7941 180.872 58.8206ZM166.41 51.6409C166.372 51.6424 166.329 51.65 166.285 51.6601C166.212 51.6436 166.115 51.6375 165.982 51.6503C163.977 51.8374 162.173 52.7676 161.632 54.4266C160.972 53.8889 160.137 53.6217 159.175 53.6466C158.858 51.6447 156.633 50.6264 154.418 50.6998C154.521 49.3395 154.625 47.9789 154.686 46.6163C158.397 49.7854 165.432 48.176 170.008 46.7691C169.852 48.1836 170.932 48.9392 171.975 50.0884C173.079 51.3064 173.533 52.9045 174.559 54.1542C174.302 54.2039 174.045 54.2547 173.789 54.3066C173.031 54.4597 171.983 54.8206 171.191 54.6479C170.786 52.6502 168.673 51.5551 166.41 51.6409ZM165.774 52.2185C165.817 52.2234 165.867 52.2261 165.931 52.2234C167.902 52.1486 169.443 53.0423 169.949 54.7954C170.397 56.3431 169.572 58.4052 167.692 58.7495C162.855 59.636 160.435 52.7457 165.774 52.2185ZM154.146 55.2628C154.183 53.9344 154.274 52.6091 154.373 51.2838C156.23 51.3531 157.684 52.2788 157.976 54.0628C158.287 55.9713 156.731 57.6338 154.706 57.9058C154.483 57.9359 154.267 57.9405 154.058 57.9292C154.069 56.9813 154.124 56.0631 154.146 55.2628ZM157.662 57.2368C157.639 57.9416 157.618 58.658 157.679 59.3606C156.601 59.3094 155.434 58.9132 154.477 58.4654C155.683 58.3273 156.809 57.9122 157.662 57.2368ZM152.804 51.2733C152.962 51.2537 153.11 51.192 153.225 51.1164C153.099 52.8146 152.973 54.5128 152.925 56.2148C152.913 56.6742 152.898 57.1521 152.891 57.6387C150.217 56.3984 149.529 51.6763 152.804 51.2733ZM155.274 63.3779C154.459 62.2712 154.168 60.7969 154.085 59.2944C155.24 59.7749 156.551 60.1226 157.777 60.0902C157.816 60.2897 157.862 60.4872 157.923 60.6814C158.081 61.1849 158.479 61.6018 159.107 61.525C159.943 61.4227 160.498 60.8541 160.969 60.2648C164.42 60.363 169.101 60.988 172.027 59.1055C172.859 58.5707 175.543 55.4246 176.265 56.7619C176.985 58.0985 176.247 59.7711 177.172 61.0833C175.897 63.4475 173.98 65.2624 171.25 66.2309C170.665 66.4387 169.833 66.6799 169.007 66.8021C168.991 66.769 168.906 66.7529 168.714 66.7683C168.334 66.7991 167.936 66.8266 167.529 66.8492C167.368 66.8277 167.215 66.7965 167.073 66.7514C166.921 66.7024 166.571 66.786 166.312 66.8981C162.271 66.9986 157.534 66.4454 155.274 63.3779ZM139.559 101.419C139.787 101.393 140.015 101.371 140.243 101.349C141.332 101.243 142.427 101.176 143.531 101.164C143.986 101.159 144.809 100.527 143.996 100.536C143.217 100.545 142.442 100.582 141.671 100.639C144.534 94.0352 144.487 86.7272 147.656 80.208C147.89 79.7271 148.155 79.2815 148.442 78.8612C150.712 75.5382 154.56 74.0119 158.58 72.8074C160.413 72.2584 162.279 71.7745 164.05 71.2176C159.632 77.4065 157.694 85.0264 156.355 92.1846C156.138 93.344 155.931 94.5169 155.74 95.6984C155.467 97.3857 155.23 99.0915 155.047 100.802C154.699 104.076 154.557 107.369 154.783 110.592C154.789 110.674 154.851 110.726 154.942 110.755C153.696 111.638 152.562 112.651 151.577 113.723C151.474 113.835 151.374 114.031 151.59 114.109C151.596 114.111 151.601 114.112 151.607 114.115C149.651 114.115 147.697 114.115 145.741 114.115C145.675 114.115 145.609 114.115 145.543 114.115C145.549 114.11 145.554 114.106 145.56 114.101C146.236 113.555 146.79 112.885 147.238 112.134C149.347 113.284 152.462 111.439 152.743 109.344C152.885 108.28 152.226 107.145 151.021 106.901C150.235 106.742 149.462 106.894 148.797 107.242C148.831 106.978 148.859 106.716 148.882 106.454C148.911 106.422 148.93 106.387 148.932 106.349C149.04 103.919 149.599 101.45 150.036 99.058C150.952 94.0491 152.165 89.084 153.696 84.2004C153.773 83.9566 152.598 84.1045 152.509 84.3871C150.923 89.4448 149.701 94.5839 148.753 99.7703C148.406 101.669 147.992 103.626 147.809 105.564C143.214 105.564 138.619 105.564 134.025 105.564C133.637 105.564 133.154 105.953 133.236 106.164C133.215 106.196 133.203 106.229 133.208 106.264C133.474 108.592 133.457 111.194 134.764 113.281C134.888 113.479 135.03 113.656 135.18 113.823C132.671 113.8 130.161 113.783 127.651 113.76C125.508 113.738 123.366 113.716 121.223 113.683C120.84 113.677 120.455 113.668 120.072 113.661C120.002 113.66 119.931 113.658 119.861 113.657C119.953 113.61 120.043 113.558 120.13 113.504C120.825 113.071 121.348 112.417 121.57 111.487C122.018 109.617 121.367 107.069 120.098 105.468C126.621 104.331 132.974 102.161 139.559 101.419ZM148.658 108.112C148.757 108.078 148.839 108.037 148.882 107.99C150.213 106.591 151.616 108.125 151.545 109.502C151.466 111.044 149.434 112.674 147.922 111.435C147.862 111.385 147.761 111.366 147.645 111.367C148.127 110.357 148.451 109.242 148.658 108.112ZM134.441 106.296C138.79 106.296 143.14 106.296 147.488 106.296C147.562 106.296 147.639 106.281 147.714 106.257C147.397 111.166 145.225 116.512 138.473 114.731C134.695 113.735 134.734 109.239 134.441 106.296ZM110.845 111.915C111.193 111.944 111.825 111.931 112.5 111.852C112.475 112.894 110.46 112.935 109.608 112.882C109.033 112.845 108.313 112.734 107.9 112.333C107.543 111.986 107.88 111.573 108.227 111.272C108.958 111.727 110.035 111.847 110.845 111.915ZM113.173 112.713C113.529 112.436 113.746 112.08 113.728 111.628C114.074 111.536 114.39 111.42 114.638 111.276C115.102 112.2 115.529 113.138 115.981 114.067C115.541 114.083 115.071 114.077 114.717 114.092C114.212 114.113 113.473 114.142 112.932 114.157C113.473 113.826 113.694 113.359 113.173 112.713ZM117.39 106.786C117.421 106.709 117.349 106.665 117.229 106.647C117.3 106.626 117.365 106.601 117.419 106.574C117.424 106.579 117.43 106.585 117.435 106.591C117.676 106.837 117.797 107.197 117.9 107.505C118.15 108.246 118.189 109.067 117.99 109.819C117.9 110.157 117.724 110.46 117.466 110.715C116.936 111.241 116.378 110.735 116.317 110.215C116.294 110.012 116.309 109.801 116.34 109.586C116.538 109.344 116.67 109.07 116.638 108.763C116.633 108.708 116.619 108.655 116.604 108.603C116.843 107.961 117.171 107.328 117.39 106.786ZM118.822 105.677C120.475 107.645 121.663 112.814 118.609 113.596C118.313 113.561 118.044 113.541 118.175 113.673C118.173 113.673 118.172 113.673 118.17 113.673C118.016 113.544 117.666 113.576 117.39 113.68C117.32 113.674 117.253 113.672 117.181 113.663C117.166 113.662 117.148 113.662 117.13 113.663C116.774 112.925 116.433 112.181 116.075 111.444C117.254 111.694 118.66 110.853 119.085 109.923C119.565 108.871 119.355 107.376 118.728 106.411C118.205 105.608 116.974 105.789 116.451 106.513C116.365 106.631 116.436 106.693 116.574 106.716C116.391 106.771 116.238 106.853 116.197 106.955C116.117 107.154 115.98 107.437 115.829 107.762C115.737 107.707 115.644 107.655 115.553 107.608C115.18 107.417 114.781 107.263 114.369 107.133C114.384 107.086 114.382 107.035 114.357 106.984C114.223 106.706 114.082 106.431 113.937 106.157C115.582 106.094 117.208 105.922 118.822 105.677ZM110.504 107.158C110.506 107.158 110.507 107.158 110.509 107.158C110.568 107.194 110.65 107.222 110.768 107.238C111.843 107.379 112.913 107.591 113.935 107.928C114.42 108.088 114.939 108.301 115.278 108.665C115.327 108.718 115.36 108.771 115.384 108.824C115.303 109.046 115.234 109.27 115.18 109.49C115.132 109.541 115.08 109.589 115.026 109.635C114.95 109.533 114.801 109.462 114.559 109.465C113.405 109.481 112.257 109.637 111.101 109.568C110.366 109.523 109.993 109.299 109.775 108.633C109.628 108.183 109.779 107.114 110.504 107.158ZM109.026 109.771C109.504 110.384 110.551 110.407 111.292 110.417C112.11 110.429 112.922 110.361 113.736 110.322C114.031 110.709 113.839 110.933 113.451 111.06C113.22 110.989 112.864 111.055 112.644 111.195C112.117 111.232 111.56 111.207 111.28 111.187C110.224 111.113 108.286 110.674 109.021 109.763C109.023 109.766 109.024 109.768 109.026 109.771ZM109.301 113.575C109.994 113.619 111.176 113.541 112.146 113.225C113.529 115.316 105.971 114.53 107.21 113.12C107.814 113.454 108.7 113.537 109.301 113.575ZM101.846 60.357C101.846 60.36 101.846 60.3634 101.846 60.3664C94.3683 60.3954 43.6865 60.5914 37.7646 60.6118C37.7646 60.5685 37.7646 60.5252 37.7646 60.4819C59.1252 60.4793 80.4855 60.3593 101.846 60.357ZM29.9045 120.152C29.8871 120.152 29.868 120.154 29.8489 120.156C29.8489 118.45 29.8493 116.744 29.8493 115.038C55.9817 115.038 82.1149 115.038 108.248 115.038C108.409 115.038 108.66 114.946 108.842 114.839C109.216 114.869 109.526 114.88 109.693 114.877C110.152 114.869 110.909 114.799 111.625 114.637C111.648 114.779 111.835 114.877 112.008 114.876C112.866 114.868 113.725 114.83 114.582 114.795C115.117 114.773 115.741 114.8 116.328 114.748C116.421 114.93 116.509 115.115 116.607 115.296C116.757 115.572 117.911 115.192 117.809 115.004C117.701 114.804 117.602 114.6 117.499 114.398C117.531 114.365 117.552 114.333 117.57 114.299C118.215 114.397 119.198 114.28 119.57 114.287C121.702 114.328 123.836 114.349 125.969 114.372C128.086 114.394 130.203 114.41 132.32 114.427C133.515 114.436 134.711 114.445 135.906 114.457C135.951 114.487 135.998 114.513 136.044 114.542C137.384 115.38 139.198 115.561 140.816 115.59C142.386 115.619 143.668 115.277 144.714 114.68C159.271 114.68 173.828 114.68 188.385 114.68C189.838 114.705 191.461 114.738 193.105 114.68C201.119 114.68 209.132 114.68 217.146 114.68C217.11 116.506 216.926 118.327 216.891 120.153C199.09 120.153 181.289 120.153 163.487 120.153C161.146 119.83 158.821 119.721 157.046 119.687C152.597 119.601 148.128 119.784 143.665 120.153C128.315 120.153 112.966 120.153 97.6168 120.153C97.6168 120.151 97.6168 120.149 97.6168 120.147C97.6168 120.055 97.2106 120.068 96.8703 120.153C92.8774 120.153 88.8846 120.153 84.8921 120.153C84.8921 120.151 84.8921 120.149 84.8921 120.147C84.8921 120.022 84.4149 120.04 84.0622 120.153C73.4458 120.153 62.8293 120.153 52.2133 120.153C44.7765 120.152 37.3405 120.152 29.9045 120.152ZM134.447 136.261C129.035 135.744 123.515 134.732 118.341 133.204C116.068 132.533 112.978 131.588 112.618 129.142C112.469 128.127 112.943 126.995 113.582 126.049C113.909 125.934 114.154 125.628 114.039 125.435C114.108 125.351 114.177 125.27 114.247 125.191C114.353 125.289 114.549 125.339 114.819 125.272C124.561 122.842 134.931 121.645 144.968 120.848C145.708 120.79 146.45 120.734 147.193 120.683C151.996 120.683 156.797 120.683 161.6 120.683C162.142 120.736 162.683 120.794 163.222 120.863C166.589 121.294 171.8 122.302 172.377 126.005C172.579 127.3 172.023 128.639 171.409 129.78C171.348 129.894 171.359 129.98 171.41 130.043C170.803 130.668 170.185 131.281 169.537 131.865C165.028 135.924 159.261 137.154 153.073 137.474C146.979 137.79 140.849 137.19 134.802 136.465C134.802 136.367 134.703 136.285 134.447 136.261ZM102.49 178.401C102.476 178.451 102.476 178.492 102.481 178.531C102.334 178.602 102.234 178.664 102.255 178.671C102.766 178.84 103.278 179.01 103.791 179.178C101.647 179.549 99.5321 180.071 97.4782 180.745C97.4819 160.724 97.6114 140.703 97.6151 120.683C111.182 120.683 124.749 120.683 138.316 120.683C132.525 121.343 126.764 122.266 121.1 123.281C118.931 123.67 116.751 124.062 114.619 124.594C114.524 124.618 114.446 124.649 114.382 124.687C114.148 124.561 113.588 124.617 113.4 124.82C113.288 124.941 113.181 125.065 113.075 125.192C108.799 124.426 99.8694 119.548 99.0873 125.973C98.6628 129.46 100.231 132.614 104.032 133.673C106.95 134.486 110.209 134.147 113.266 133.642C108.15 148.226 106.757 163.626 102.49 178.401ZM105.414 133.065C101.371 132.436 100.094 129.28 100.308 125.899C100.514 122.636 103.693 123.473 106.1 124.208C108.203 124.85 110.28 125.679 112.481 125.999C111.938 126.83 111.551 127.746 111.417 128.701C111.141 130.67 112.673 131.824 114.385 132.632C111.433 133.14 108.393 133.528 105.414 133.065ZM166.406 120.682C173.137 120.682 179.867 120.682 186.598 120.682C183.454 121.229 180.461 122.255 177.813 124.054C176.119 125.206 174.69 126.615 173.303 128.062C174.523 123.827 170.867 121.724 166.406 120.682ZM36.5434 188.636C36.4152 188.636 36.2297 188.695 36.0679 188.773C36.065 166.076 35.9318 143.379 35.9297 120.682C51.8498 120.682 67.7695 120.682 83.6896 120.682C83.6921 143.49 83.8249 166.298 83.8278 189.106C68.0662 188.894 52.3058 188.641 36.5434 188.636ZM84.8921 120.682C88.7327 120.682 92.5733 120.682 96.4135 120.682C96.411 140.841 96.279 161 96.2761 181.157C95.4525 181.455 94.6392 181.776 93.8413 182.125C90.6169 183.54 87.1891 185.761 86.4883 189.142C86.002 189.135 85.5157 189.128 85.0298 189.121C85.0286 166.309 84.8958 143.496 84.8921 120.682ZM87.6846 189.158C88.3153 185.868 91.7604 183.92 94.8301 182.574C97.9981 181.184 101.513 180.275 104.984 179.771C105.103 179.754 105.209 179.712 105.299 179.657C109.322 180.894 113.44 181.756 117.609 180.543C117.647 180.555 117.717 180.56 117.805 180.559C117.212 183.483 116.988 186.478 116.299 189.385C106.761 189.377 97.2226 189.28 87.6846 189.158ZM117.641 180.207C113.606 181.501 109.384 180.306 105.466 179.007C105.425 178.993 105.383 178.979 105.341 178.966C104.78 178.779 104.225 178.592 103.679 178.409C103.692 178.385 103.705 178.359 103.712 178.332C107.971 163.588 109.34 148.212 114.468 133.664C114.5 133.575 114.499 133.5 114.479 133.435C114.879 133.365 115.275 133.293 115.663 133.223C115.69 133.219 115.712 133.211 115.737 133.205C115.797 133.229 115.858 133.253 115.918 133.276C120.595 135.071 125.968 136.031 131.115 136.631C130.425 151.94 120.658 165.348 117.641 180.207ZM145.714 156.18C144.502 162.563 143.337 168.953 142.183 175.345C141.544 178.883 140.865 182.42 140.292 185.968C140.062 187.39 139.523 189.473 137.654 188.114C136.471 187.255 136.429 186.022 136.636 184.794C137.093 182.07 137.596 179.352 138.093 176.633C140.124 165.508 142.631 154.337 143.891 143.109C144.489 143.193 145.065 143.268 145.606 143.336C146.496 143.448 147.388 143.544 148.282 143.626C147.154 147.744 146.507 152.004 145.714 156.18ZM185.329 181.5C185.512 182.537 185.692 183.576 185.863 184.614C186.154 186.387 183.84 188.66 182.572 186.405C181.981 185.353 181.938 183.617 181.729 182.431C180.796 177.138 179.842 171.848 178.876 166.56C177.45 158.755 176.386 150.742 174.294 143.05C175.739 142.852 177.173 142.608 178.589 142.296C180.027 155.431 183.032 168.476 185.329 181.5ZM203.37 121.288C199.102 127.439 194.732 134.058 187.934 138.183C182.062 141.747 174.954 142.643 168.061 143.074C161.148 143.506 154.135 143.591 147.244 142.862C142.561 142.366 134.916 141.444 132.591 137.008C138.919 137.784 145.276 138.422 151.672 138.284C157.409 138.159 163.235 137.299 167.958 134.176C171.26 131.992 173.587 128.904 176.417 126.281C180.622 122.384 186.096 121.09 191.976 120.925C192.218 120.918 192.406 120.813 192.511 120.683C193.225 120.683 193.939 120.683 194.653 120.683C197.734 120.683 200.815 120.683 203.895 120.683C203.728 120.747 203.604 120.835 203.604 120.94C203.604 121.004 203.604 121.069 203.604 121.134C203.498 121.175 203.412 121.228 203.37 121.288ZM210.658 120.689C210.655 143.46 210.389 166.23 210.382 189.001C208.431 189.001 206.481 189.001 204.53 189.001C204.534 166.228 204.803 143.456 204.806 120.682C206.757 120.682 208.708 120.682 210.659 120.682C210.659 120.684 210.658 120.687 210.658 120.689ZM164.047 74.6558C163.922 74.3856 165.099 74.0401 165.249 74.3638C166.319 76.6659 170.806 77.4437 173.159 76.9237C173.87 76.7668 174.007 77.2055 173.289 77.3639C170.497 77.9803 165.335 77.4256 164.047 74.6558Z" fill="#FF835B"/>
</svg>
