<svg width="171" height="22" viewBox="0 0 171 22" fill="none" xmlns="http://www.w3.org/2000/svg">
<path d="M0.016 21V0.391998H3.504V18.312H14.064V21H0.016ZM16.8285 21V0.391998H31.1965V3.112H20.3165V9.352H30.0125V12.04H20.3165V18.312H31.1965V21H16.8285ZM34.4223 21V0.391998H48.7903V3.112H37.9103V9.352H47.6063V12.04H37.9103V18.312H48.7903V21H34.4223ZM57.36 21V3.112H50.768V0.391998H67.408V3.112H60.848V21H57.36Z" fill="white"/>
<path d="M70.2035 21V0.391998H80.1875C82.2355 0.391998 83.7502 0.871998 84.7315 1.832C85.7128 2.792 86.2035 4.14667 86.2035 5.896C86.2035 7.00533 85.9795 7.944 85.5315 8.712C85.0835 9.45867 84.4862 10.024 83.7395 10.408C84.7422 10.6853 85.5315 11.1867 86.1075 11.912C86.7048 12.616 87.0035 13.6613 87.0035 15.048C87.0035 17.0533 86.4595 18.5467 85.3715 19.528C84.3048 20.5093 82.7262 21 80.6355 21H70.2035ZM73.6915 9.192H79.7075C80.8808 9.192 81.7128 8.92533 82.2035 8.392C82.7155 7.83733 82.9715 7.10133 82.9715 6.184C82.9715 5.11733 82.7155 4.328 82.2035 3.816C81.6915 3.28267 80.7315 3.016 79.3235 3.016H73.6915V9.192ZM73.6915 18.44H79.8995C81.1368 18.44 82.0435 18.184 82.6195 17.672C83.1955 17.1387 83.4835 16.2213 83.4835 14.92C83.4835 13.8533 83.1955 13.064 82.6195 12.552C82.0648 12.0187 81.0408 11.752 79.5475 11.752H73.6915V18.44ZM99.511 21.32C96.247 21.32 93.8043 20.4667 92.183 18.76C90.5617 17.032 89.751 14.3653 89.751 10.76C89.751 7.00533 90.5617 4.28533 92.183 2.6C93.8043 0.914665 96.247 0.0719986 99.511 0.0719986C102.796 0.0719986 105.239 0.914665 106.839 2.6C108.46 4.28533 109.271 7.00533 109.271 10.76C109.271 14.3653 108.46 17.032 106.839 18.76C105.239 20.4667 102.796 21.32 99.511 21.32ZM99.511 18.376C101.666 18.376 103.244 17.7893 104.247 16.616C105.271 15.4213 105.783 13.4693 105.783 10.76C105.783 7.90133 105.271 5.90667 104.247 4.776C103.244 3.624 101.666 3.048 99.511 3.048C97.3777 3.048 95.799 3.624 94.775 4.776C93.7723 5.90667 93.271 7.90133 93.271 10.76C93.271 13.4693 93.7723 15.4213 94.775 16.616C95.799 17.7893 97.3777 18.376 99.511 18.376ZM110.314 21L118.186 0.391998H122.09L129.898 21H126.314L124.266 15.688H115.978L113.93 21H110.314ZM116.522 13H123.69L120.106 3.56L116.522 13ZM133.329 21V0.391998H142.801C145.105 0.391998 146.779 0.989332 147.825 2.184C148.891 3.35733 149.425 4.95733 149.425 6.984C149.425 8.43467 149.062 9.672 148.337 10.696C147.611 11.72 146.566 12.4347 145.201 12.84C145.585 13.1173 145.883 13.416 146.097 13.736C146.31 14.056 146.523 14.4827 146.737 15.016L149.329 21H145.745L143.217 15.24C142.982 14.6853 142.694 14.2907 142.353 14.056C142.033 13.8213 141.478 13.704 140.689 13.704H136.817V21H133.329ZM136.817 10.888H141.873C143.131 10.888 144.123 10.5787 144.849 9.96C145.574 9.34133 145.937 8.34933 145.937 6.984C145.937 4.40267 144.689 3.112 142.193 3.112H136.817V10.888ZM152.86 21V0.391998H161.212C164.262 0.391998 166.524 1.20267 167.996 2.824C169.468 4.424 170.204 7.09067 170.204 10.824C170.204 14.344 169.478 16.9253 168.028 18.568C166.577 20.1893 164.305 21 161.212 21H152.86ZM156.348 18.312H160.668C162.012 18.312 163.132 18.12 164.028 17.736C164.924 17.3307 165.596 16.584 166.044 15.496C166.492 14.408 166.716 12.8507 166.716 10.824C166.716 8.79733 166.513 7.22933 166.108 6.12C165.702 5.01067 165.052 4.232 164.156 3.784C163.281 3.336 162.118 3.112 160.668 3.112H156.348V18.312Z" fill="url(#paint0_linear_6_3)"/>
<defs>
<linearGradient id="paint0_linear_6_3" x1="148.486" y1="9.54716" x2="-2.00001" y2="9.54718" gradientUnits="userSpaceOnUse">
<stop stop-color="#FF835B"/>
<stop offset="1" stop-color="#F2440D"/>
</linearGradient>
</defs>
</svg>
