<svg width="256" height="16" viewBox="0 0 256 16" fill="none" xmlns="http://www.w3.org/2000/svg">
<path d="M4.268 15L0.968 0.831999H3.322L5.72 11.458L8.404 2.548V0.831999H10.362L13.376 11.458L15.818 0.831999H18.15L14.872 15H12.518L9.68 5.078L6.666 15H4.268ZM20.5071 15V0.831999H30.3851V2.702H22.9051V6.992H29.5711V8.84H22.9051V13.152H30.3851V15H20.5071ZM32.6028 15V0.831999H35.0008V13.152H42.2608V15H32.6028ZM50.1394 15.22C47.8074 15.22 46.04 14.582 44.8374 13.306C43.6494 12.03 43.0554 10.3067 43.0554 8.136C43.0554 6.58133 43.3047 5.24667 43.8034 4.132C44.3167 3.00267 45.094 2.13733 46.1354 1.536C47.1767 0.919999 48.504 0.611999 50.1174 0.611999C50.9387 0.611999 51.6867 0.677999 52.3614 0.809999C53.0507 0.927333 53.6887 1.08867 54.2754 1.294V3.384C53.6887 3.14933 53.058 2.97333 52.3834 2.856C51.7234 2.724 51.0267 2.658 50.2934 2.658C48.5334 2.658 47.2867 3.12733 46.5534 4.066C45.8347 5.00467 45.4754 6.36133 45.4754 8.136C45.4754 9.79333 45.8714 11.0547 46.6634 11.92C47.4554 12.7707 48.68 13.196 50.3374 13.196C51.012 13.196 51.6867 13.1447 52.3614 13.042C53.0507 12.9247 53.696 12.7487 54.2974 12.514V14.626C53.7107 14.8167 53.0727 14.9633 52.3834 15.066C51.7087 15.1687 50.9607 15.22 50.1394 15.22ZM62.4626 15.22C60.2186 15.22 58.5393 14.6333 57.4246 13.46C56.31 12.272 55.7526 10.4387 55.7526 7.96C55.7526 5.37867 56.31 3.50867 57.4246 2.35C58.5393 1.19133 60.2186 0.611999 62.4626 0.611999C64.7213 0.611999 66.4006 1.19133 67.5006 2.35C68.6153 3.50867 69.1726 5.37867 69.1726 7.96C69.1726 10.4387 68.6153 12.272 67.5006 13.46C66.4006 14.6333 64.7213 15.22 62.4626 15.22ZM62.4626 13.196C63.944 13.196 65.0293 12.7927 65.7186 11.986C66.4226 11.1647 66.7746 9.82267 66.7746 7.96C66.7746 5.99467 66.4226 4.62333 65.7186 3.846C65.0293 3.054 63.944 2.658 62.4626 2.658C60.996 2.658 59.9106 3.054 59.2066 3.846C58.5173 4.62333 58.1726 5.99467 58.1726 7.96C58.1726 9.82267 58.5173 11.1647 59.2066 11.986C59.9106 12.7927 60.996 13.196 62.4626 13.196ZM71.511 15V0.831999H73.975L78.463 10.006L82.929 0.831999H85.393V15H83.017V4.726L79.189 12.558H77.737L73.887 4.726V15H71.511ZM88.1614 15V0.831999H98.0394V2.702H90.5594V6.992H97.2254V8.84H90.5594V13.152H98.0394V15H88.1614ZM109.001 15V2.702H104.469V0.831999H115.909V2.702H111.399V15H109.001ZM123.886 15.22C121.642 15.22 119.963 14.6333 118.848 13.46C117.734 12.272 117.176 10.4387 117.176 7.96C117.176 5.37867 117.734 3.50867 118.848 2.35C119.963 1.19133 121.642 0.611999 123.886 0.611999C126.145 0.611999 127.824 1.19133 128.924 2.35C130.039 3.50867 130.596 5.37867 130.596 7.96C130.596 10.4387 130.039 12.272 128.924 13.46C127.824 14.6333 126.145 15.22 123.886 15.22ZM123.886 13.196C125.368 13.196 126.453 12.7927 127.142 11.986C127.846 11.1647 128.198 9.82267 128.198 7.96C128.198 5.99467 127.846 4.62333 127.142 3.846C126.453 3.054 125.368 2.658 123.886 2.658C122.42 2.658 121.334 3.054 120.63 3.846C119.941 4.62333 119.596 5.99467 119.596 7.96C119.596 9.82267 119.941 11.1647 120.63 11.986C121.334 12.7927 122.42 13.196 123.886 13.196ZM138.005 15V0.831999H140.403V13.152H147.663V15H138.005ZM149.564 15V0.831999H159.442V2.702H151.962V6.992H158.628V8.84H151.962V13.152H159.442V15H149.564ZM161.659 15V0.831999H171.537V2.702H164.057V6.992H170.723V8.84H164.057V13.152H171.537V15H161.659ZM177.429 15V2.702H172.897V0.831999H184.337V2.702H179.827V15H177.429Z" fill="white"/>
<path d="M186.259 15V0.831999H193.123C194.531 0.831999 195.572 1.162 196.247 1.822C196.922 2.482 197.259 3.41333 197.259 4.616C197.259 5.37867 197.105 6.024 196.797 6.552C196.489 7.06533 196.078 7.454 195.565 7.718C196.254 7.90867 196.797 8.25333 197.193 8.752C197.604 9.236 197.809 9.95467 197.809 10.908C197.809 12.2867 197.435 13.3133 196.687 13.988C195.954 14.6627 194.868 15 193.431 15H186.259ZM188.657 6.882H192.793C193.6 6.882 194.172 6.69867 194.509 6.332C194.861 5.95067 195.037 5.44467 195.037 4.814C195.037 4.08067 194.861 3.538 194.509 3.186C194.157 2.81933 193.497 2.636 192.529 2.636H188.657V6.882ZM188.657 13.24H192.925C193.776 13.24 194.399 13.064 194.795 12.712C195.191 12.3453 195.389 11.7147 195.389 10.82C195.389 10.0867 195.191 9.544 194.795 9.192C194.414 8.82533 193.71 8.642 192.683 8.642H188.657V13.24ZM206.408 15.22C204.164 15.22 202.485 14.6333 201.37 13.46C200.255 12.272 199.698 10.4387 199.698 7.96C199.698 5.37867 200.255 3.50867 201.37 2.35C202.485 1.19133 204.164 0.611999 206.408 0.611999C208.667 0.611999 210.346 1.19133 211.446 2.35C212.561 3.50867 213.118 5.37867 213.118 7.96C213.118 10.4387 212.561 12.272 211.446 13.46C210.346 14.6333 208.667 15.22 206.408 15.22ZM206.408 13.196C207.889 13.196 208.975 12.7927 209.664 11.986C210.368 11.1647 210.72 9.82267 210.72 7.96C210.72 5.99467 210.368 4.62333 209.664 3.846C208.975 3.054 207.889 2.658 206.408 2.658C204.941 2.658 203.856 3.054 203.152 3.846C202.463 4.62333 202.118 5.99467 202.118 7.96C202.118 9.82267 202.463 11.1647 203.152 11.986C203.856 12.7927 204.941 13.196 206.408 13.196ZM213.835 15L219.247 0.831999H221.931L227.299 15H224.835L223.427 11.348H217.729L216.321 15H213.835ZM218.103 9.5H223.031L220.567 3.01L218.103 9.5ZM229.657 15V0.831999H236.169C237.753 0.831999 238.905 1.24267 239.623 2.064C240.357 2.87067 240.723 3.97067 240.723 5.364C240.723 6.36133 240.474 7.212 239.975 7.916C239.477 8.62 238.758 9.11133 237.819 9.39C238.083 9.58067 238.289 9.786 238.435 10.006C238.582 10.226 238.729 10.5193 238.875 10.886L240.657 15H238.193L236.455 11.04C236.294 10.6587 236.096 10.3873 235.861 10.226C235.641 10.0647 235.26 9.984 234.717 9.984H232.055V15H229.657ZM232.055 8.048H235.531C236.397 8.048 237.079 7.83533 237.577 7.41C238.076 6.98467 238.325 6.30267 238.325 5.364C238.325 3.58933 237.467 2.702 235.751 2.702H232.055V8.048ZM243.085 15V0.831999H248.827C250.925 0.831999 252.479 1.38933 253.491 2.504C254.503 3.604 255.009 5.43733 255.009 8.004C255.009 10.424 254.511 12.1987 253.513 13.328C252.516 14.4427 250.954 15 248.827 15H243.085ZM245.483 13.152H248.453C249.377 13.152 250.147 13.02 250.763 12.756C251.379 12.4773 251.841 11.964 252.149 11.216C252.457 10.468 252.611 9.39733 252.611 8.004C252.611 6.61067 252.472 5.53267 252.193 4.77C251.915 4.00733 251.467 3.472 250.851 3.164C250.25 2.856 249.451 2.702 248.453 2.702H245.483V13.152Z" fill="url(#paint0_linear_6_27)"/>
<defs>
<linearGradient id="paint0_linear_6_27" x1="248.216" y1="8.1698" x2="-2.35874e-05" y2="8.16989" gradientUnits="userSpaceOnUse">
<stop stop-color="#FF835B"/>
<stop offset="1" stop-color="#F2440D"/>
</linearGradient>
</defs>
</svg>
